<svg xmlns:serif="http://www.serif.com/" xmlns="http://www.w3.org/2000/svg" xmlns:xlink="http://www.w3.org/1999/xlink" id="Layer_1" x="0px" y="0px" viewBox="0 0 2000 2000" style="enable-background:new 0 0 2000 2000;" xml:space="preserve"><g>	<defs>		<rect id="SVGID_1_" width="2000" height="2000"></rect>	</defs>	<clipPath id="SVGID_00000102545468154755870930000013897031773777839536_">		<use xlink:href="#SVGID_1_" style="overflow:visible;"></use>	</clipPath>			<g transform="matrix(4.04049,0,0,4.04049,255.785,480.049)" style="clip-path:url(#SVGID_00000102545468154755870930000013897031773777839536_);">		<path style="fill:#FFF4DD;" d="M0,344.433h388.507c6.214-7.427,43.353-116.184,13.476-186.781   c-25.653-60.613-29.835-3.274-69.681-44.784c-29.19-30.407,20.719-44.41-15.632-89.21c-58.032-71.52-243.328-97.335-267.924-5.072   C27.07,99.898-49.43,50.207-18.479,135.548c31.949,88.093-20.629,62.097-20.44,112.735C-38.714,303.286-21.55,340.037,0,344.433"></path>	</g>			<g transform="matrix(0.291166,0.0483622,-0.0483622,0.291166,938.667,1278.29)" style="clip-path:url(#SVGID_00000102545468154755870930000013897031773777839536_);">		<g transform="matrix(0.819634,0,0,0.819634,180.366,325.083)">			<g transform="matrix(1.15549,0,0,1.15549,-230.584,-103.388)">				<circle style="fill-rule:evenodd;clip-rule:evenodd;fill:#FBDB98;" cx="1064.989" cy="954.908" r="740.053"></circle>			</g>			<path style="fill-rule:evenodd;clip-rule:evenodd;fill:#FFF4DE;" d="M1000,300.399c386.12,0,699.6,313.482,699.6,699.603    c0,386.12-313.48,699.6-699.601,699.6c-386.121,0-699.602-313.48-699.602-699.601C300.397,613.88,613.879,300.399,1000,300.399z     M1000,452.919c-301.943,0-547.082,245.139-547.082,547.082c0,301.94,245.139,547.08,547.082,547.08    c301.94,0,547.08-245.14,547.08-547.08C1547.079,698.058,1301.94,452.919,1000,452.919z"></path>			<path style="fill-rule:evenodd;clip-rule:evenodd;fill:#FBDB98;" d="M1000,452.919c301.94,0,547.08,245.139,547.08,547.082    c0,301.94-245.141,547.08-547.08,547.08c-301.943,0-547.082-245.14-547.082-547.08C452.917,698.058,698.057,452.919,1000,452.919    z M1000,631.964c-203.125,0-368.037,164.912-368.037,368.037c0,203.12,164.912,368.04,368.037,368.04    c203.12,0,368.04-164.92,368.04-368.04C1368.04,796.876,1203.12,631.964,1000,631.964z"></path>			<path style="fill-rule:evenodd;clip-rule:evenodd;fill:#FFF4DE;" d="M1000,631.964c203.12,0,368.04,164.912,368.04,368.037    c0,203.12-164.92,368.04-368.04,368.04c-203.125,0-368.037-164.92-368.037-368.04C631.962,796.876,796.874,631.964,1000,631.964z     M999.999,845.492c-85.276,0-154.509,69.233-154.509,154.509c0,85.28,69.233,154.51,154.509,154.51    c85.28,0,154.51-69.23,154.51-154.51C1154.509,914.725,1085.279,845.492,999.999,845.492z"></path>			<g transform="matrix(1.32618,0,0,1.32618,-326.18,-326.18)">				<circle style="fill-rule:evenodd;clip-rule:evenodd;fill:#FBDB98;" cx="999.999" cy="1000.001" r="154.509"></circle>			</g>		</g>		<g transform="matrix(0.933265,0.774472,-0.774472,0.933265,597.726,-548.694)">			<g transform="matrix(0.859805,5.55112e-17,-5.55112e-17,0.859805,63.0319,120.386)">				<path style="fill-rule:evenodd;clip-rule:evenodd;fill:#FBDB98;" d="M387.355,859.416l-25-75.063l177.559,0l30,75.063     l-30,75.064l-177.559,0L387.355,859.416z"></path>			</g>			<g transform="matrix(1.14348,-1.11022e-16,0,1,240.791,662.653)">				<path style="fill-rule:evenodd;clip-rule:evenodd;fill:#F3C564;" d="M147.342,207.166c-5.021-0.024-9.08-4.705-9.058-10.447     c0.021-5.741,4.115-10.382,9.136-10.358l644.976,3.139c5.021,0.024,9.08,4.706,9.059,10.447     c-0.021,5.741-4.115,10.382-9.136,10.358L147.342,207.166z"></path>			</g>		</g>	</g>			<g transform="matrix(8.87813,0,0,8.87813,673.564,1490.21)" style="clip-path:url(#SVGID_00000102545468154755870930000013897031773777839536_);">		<path style="fill:#FFF4DE;stroke:#FBDB98;stroke-width:16.6021;stroke-linejoin:round;stroke-miterlimit:17.7563;" d="   M-0.83-13.263c-3.301,3.123-3.446,9.99-0.323,13.291s9.99,3.445,13.291,0.323c3.301-3.123,3.446-9.99,0.323-13.291   S2.471-16.386-0.83-13.263 M-3.621-22.823c1.488-0.81,3.06-1.404,4.671-1.783l1.149-4.492l7.667,0.213l0.898,4.548   c1.588,0.468,3.125,1.148,4.566,2.04l3.986-2.363l5.271,5.572l-2.579,3.849c0.81,1.489,1.403,3.061,1.783,4.672l4.491,1.149   l-0.213,7.667l-4.548,0.899c-0.468,1.587-1.148,3.123-2.039,4.564l2.361,3.987l-5.571,5.271l-3.849-2.579   c-1.489,0.809-3.061,1.403-4.672,1.782l-1.149,4.492l-7.667-0.213l-0.898-4.548c-1.587-0.469-3.124-1.149-4.565-2.04l-3.987,2.363   l-5.271-5.572l2.58-3.849c-0.81-1.489-1.404-3.061-1.783-4.672l-4.491-1.149l0.213-7.667l4.548-0.899   c0.468-1.587,1.148-3.123,2.039-4.564l-2.362-3.987l5.571-5.271L-3.621-22.823z"></path>	</g>			<g transform="matrix(1.03519,0,0,1.03519,-189.615,-133.53)" style="clip-path:url(#SVGID_00000102545468154755870930000013897031773777839536_);">					<path style="fill-rule:evenodd;clip-rule:evenodd;fill:#FFFFFF;stroke:#434D56;stroke-width:2.7018;stroke-linecap:round;stroke-linejoin:round;stroke-miterlimit:1.5528;" d="   M1853.26,259.947c21.71,0,39.31,17.602,39.31,39.315c0,153.561,0,711.988,0,865.548c0,21.71-17.6,39.31-39.31,39.31   c-207.84,0-1176.894,0-1384.732,0c-21.713,0-39.314-17.6-39.314-39.31c0-153.56,0-711.987,0-865.548   c0-21.713,17.601-39.315,39.314-39.315C676.366,259.947,1645.42,259.947,1853.26,259.947z"></path>		<g transform="matrix(1,0,0,0.120192,0,228.703)">			<path style="fill-rule:evenodd;clip-rule:evenodd;fill:#434D56;" d="M1853.26,259.947c21.71,0,39.31,146.447,39.31,327.098    c0,325.342,0,776.345,0,776.345H429.214V587.045c0-180.651,17.601-327.098,39.314-327.098    C676.366,259.947,1645.42,259.947,1853.26,259.947z"></path>		</g>		<g transform="matrix(1,0,0,1,25.8434,-4.1537)">			<circle style="fill-rule:evenodd;clip-rule:evenodd;fill:#E19A06;" cx="1787.7" cy="330.414" r="18.428"></circle>		</g>		<g transform="matrix(1,0,0,1,-79.1974,-4.1537)">			<circle style="fill-rule:evenodd;clip-rule:evenodd;fill:#E19A06;" cx="1787.7" cy="330.414" r="18.428"></circle>		</g>		<g transform="matrix(1,0,0,1,-184.238,-4.1537)">			<circle style="fill-rule:evenodd;clip-rule:evenodd;fill:#E19A06;" cx="1787.7" cy="330.414" r="18.428"></circle>		</g>		<g transform="matrix(12.3649,0,0,12.0143,-7770.42,-8582.68)">			<g transform="matrix(50,0,0,50,773.138,795.756)">			</g>			<g style="enable-background:new    ;">				<path style="fill:#E19A06;" d="M673.138,760.756h8.3c2.833,0,4.9,0.659,6.2,1.975c1.3,1.317,1.95,3.342,1.95,6.075v1.4     c0,1.8-0.292,3.267-0.875,4.4c-0.584,1.134-1.475,1.95-2.675,2.45v0.1c2.733,0.934,4.1,3.367,4.1,7.3v3     c0,2.7-0.709,4.759-2.125,6.175c-1.417,1.417-3.492,2.125-6.225,2.125h-8.65V760.756z M680.788,775.006     c1.1,0,1.925-0.283,2.475-0.85c0.55-0.566,0.825-1.516,0.825-2.85v-1.95c0-1.266-0.225-2.183-0.675-2.75     c-0.45-0.566-1.159-0.85-2.125-0.85h-2.65v9.25H680.788z M681.788,790.756c0.966,0,1.683-0.258,2.15-0.775     c0.466-0.516,0.7-1.408,0.7-2.675v-3.05c0-1.6-0.275-2.708-0.825-3.325c-0.55-0.616-1.459-0.925-2.725-0.925h-2.45v10.75     H681.788z"></path>				<path style="fill:#E19A06;" d="M693.337,760.756h8.15c2.833,0,4.9,0.659,6.2,1.975c1.3,1.317,1.95,3.342,1.95,6.075v2.15     c0,3.634-1.2,5.934-3.6,6.9v0.1c1.333,0.4,2.275,1.217,2.825,2.45c0.55,1.234,0.825,2.884,0.825,4.95v6.15     c0,1,0.033,1.809,0.1,2.425c0.066,0.617,0.233,1.225,0.5,1.825h-5.6c-0.2-0.566-0.334-1.1-0.4-1.6c-0.067-0.5-0.1-1.4-0.1-2.7     v-6.4c0-1.6-0.259-2.716-0.775-3.35c-0.517-0.633-1.409-0.95-2.675-0.95h-1.9v15h-5.5V760.756z M700.837,775.756     c1.1,0,1.925-0.283,2.475-0.85c0.55-0.566,0.825-1.516,0.825-2.85v-2.7c0-1.266-0.225-2.183-0.675-2.75     c-0.45-0.566-1.159-0.85-2.125-0.85h-2.5v10H700.837z"></path>				<path style="fill:#E19A06;" d="M717.737,760.756h7.45l5.7,35h-5.5l-1-6.95v0.1h-6.25l-1,6.85h-5.1L717.737,760.756z      M723.737,784.156l-2.45-17.3h-0.1l-2.4,17.3H723.737z"></path>				<path style="fill:#E19A06;" d="M733.537,760.756h6.9l5.35,20.95h0.1v-20.95h4.9v35h-5.65l-6.6-25.55h-0.1v25.55h-4.9V760.756z"></path>				<path style="fill:#E19A06;" d="M754.886,760.756h8.4c2.733,0,4.783,0.734,6.15,2.2c1.366,1.467,2.05,3.617,2.05,6.45v17.7     c0,2.834-0.684,4.984-2.05,6.45c-1.367,1.467-3.417,2.2-6.15,2.2h-8.4V760.756z M763.186,790.756c0.9,0,1.591-0.266,2.075-0.8     c0.483-0.533,0.725-1.4,0.725-2.6v-18.2c0-1.2-0.242-2.066-0.725-2.6c-0.484-0.533-1.175-0.8-2.075-0.8h-2.8v25H763.186z"></path>			</g>		</g>	</g>			<rect x="271.683" y="599.669" transform="matrix(-0.8718 0.4899 -0.4899 -0.8718 2530.1602 1933.121)" style="clip-path:url(#SVGID_00000102545468154755870930000013897031773777839536_);fill:none;" width="1480.897" height="1395.924"></rect>	<g style="clip-path:url(#SVGID_00000102545468154755870930000013897031773777839536_);">		<defs>							<rect id="SVGID_00000167389906720103821340000009663965969151859885_" x="93.147" y="735.266" width="1837.97" height="1124.73"></rect>		</defs>		<clipPath id="SVGID_00000086664147161465060550000004344399455482741399_">			<use xlink:href="#SVGID_00000167389906720103821340000009663965969151859885_" style="overflow:visible;"></use>		</clipPath>		<g style="clip-path:url(#SVGID_00000086664147161465060550000004344399455482741399_);">			<g transform="matrix(1.36755,0,0,1.36755,1193.46,796.112)">				<g transform="matrix(0.333625,0,0,0.333625,-422.229,-122.001)">					<path style="fill-rule:evenodd;clip-rule:evenodd;fill:#F8B79C;" d="M2106.39,979.865c-0.16-14.416-0.59-26.392-1.44-33.345      c-3.81-31.215,204.8-119.532,204.8-119.532s-1.16,64.001,4.56,125.887c4.31,46.665,13.57,93.015,24.37,104.805      c0,0-62.43,124.1-234.49,52.53c0,0,1.32-38.43,1.95-78.77C2106.42,1013.56,2106.56,995.313,2106.39,979.865z"></path>					<g transform="matrix(1.08015,0,0,1.08015,-174.514,-62.0722)">						<path style="fill-rule:evenodd;clip-rule:evenodd;fill:#F8B79C;" d="M2053.88,954.858       c-59.35-63.759-52.79-230.181-50.19-275.558c3.19-55.495,13.19-149.2,13.19-149.2l285.21-7.733l25.48,267.014       c0,0-5.77,35.01-16.95,56.864c-11.19,21.855-18.99,31.382-18.99,31.382s-0.34,0.501-1.01,1.434       c-9.22,12.912-81.26,108.475-186.43,100.655C2083.62,978.188,2067.12,969.075,2053.88,954.858z"></path>					</g>					<g transform="matrix(1.08015,0,0,1.08015,-174.514,-62.0722)">						<path style="fill-rule:evenodd;clip-rule:evenodd;fill:#F8B79C;" d="M2291.66,759.173c0.14,3.388,1.51,30.519,9.13,30.996       c8.13,0.508,9.83-16.433,16.6-42.015c6.53-24.65,39.8-36.874,58.89-10.903c0.72,0.981,1.42,2.018,2.1,3.11       c18.64,29.986,6.61,64.547-17.11,90.637c-23.72,26.09-50.65,14.909-50.65,14.909c-20.84,1.269-32.02-34.222-32.02-34.222       l13.04-52.858C2291.64,758.827,2291.65,758.947,2291.66,759.173z"></path>					</g>					<g transform="matrix(-10.7366,0,0,9.77428,4800.07,-294.345)">						<path style="fill:#EF8E71;" d="M225.298,107.834c-0.52,1.799,0.218,3.696,0.943,5.423c0.216,0.513,0.454,1.055,0.913,1.369       c0.46,0.314,1.21,0.267,1.451-0.235c0.233-0.485-0.112-1.032-0.381-1.497c-0.269-0.466-0.422-1.165,0.03-1.457       c0.211-0.136,0.487-0.124,0.708-0.241c0.482-0.254,0.479-0.942,0.355-1.473c-0.172-0.734-0.445-1.445-0.81-2.105       c-0.358-0.648-0.923-1.31-1.663-1.298C226.072,106.331,225.513,107.09,225.298,107.834z"></path>					</g>					<g transform="matrix(1.08015,0,0,1.08015,-174.514,-62.0722)">						<path style="fill-rule:evenodd;clip-rule:evenodd;fill:#EF8E71;" d="M2030.67,639.915c0,0,9.61-2.681,9.17-18.321       c-0.45-15.641,1.34-40.666,27.03-58.317c25.7-17.651-72.17-17.205-72.17-17.205l4.02,100.323L2030.67,639.915z"></path>					</g>					<g transform="matrix(1.08015,0,0,1.08015,-174.514,-62.0722)">						<path style="fill-rule:evenodd;clip-rule:evenodd;fill:#211816;" d="M2300.79,790.169c-7.62-0.477-9.11-31.086-9.11-31.13       c-0.82-8.387-5.82-48.418-13.08-69.819c0,0-152.96,9.66-179.64-97.33c-7-1.4,0.07,81.323,60.39,87.964       c0,0-41.63,6.742-65.38-43.682c-23.74-50.424-0.29-66.841-24.62-65.961c-24.33,0.879-44.56,17.296-36.65,53.062       c7.49,33.823,1.34,48.507-29.1,57.688c-0.48,8.635-1.06,21.067-1.34,36.011c-0.08,3.776-0.13,7.712-0.15,11.788       c-4.48-10.122-16.02-32.042-37.65-48.012c-29.01-21.421-79.44-95.95-2.68-153.075c0,0-12.05-101.752,105.77-89.703       c0,0,62.48-105.322,192.8-3.124c0,0,110.67-4.909,139.24,93.72c0,0,59.35,57.57,16.06,137.455       c-17.08,31.526-29.99,54.712-39.37,71.23c-19.09-25.971-52.36-13.747-58.89,10.903       C2310.62,773.736,2308.92,790.677,2300.79,790.169z"></path>					</g>					<g transform="matrix(1.05811,0,0,1.14766,-128.841,-113.284)">													<ellipse transform="matrix(-0.851 -0.5252 0.5252 -0.851 3416.1489 2446.4893)" style="fill-rule:evenodd;clip-rule:evenodd;fill:#211816;" cx="2055.17" cy="738.579" rx="13.143" ry="25.439"></ellipse>					</g>					<g transform="matrix(1.05811,0,0,1.14766,15.5367,-113.284)">													<ellipse transform="matrix(-0.8691 -0.4946 0.4946 -0.8691 3476.1189 2396.9292)" style="fill-rule:evenodd;clip-rule:evenodd;fill:#211816;" cx="2055.17" cy="738.579" rx="13.423" ry="24.907"></ellipse>					</g>					<g transform="matrix(1.08015,0,0,1.08015,-174.514,-62.0722)">						<path style="fill-rule:evenodd;clip-rule:evenodd;fill:#EF8E71;" d="M2126.14,827.342c0.21,0.856,0.2,0.901-0.26,1.652       c-0.64,1.041-0.84,0.823-2.02,1.144c-2.97,0.806-25.56,7.859-40.28-10.47c-4.26-5.304-4.56-8.343-4.66-8.912       c-1.31-7.309,3.53-12.043,3.77-12.335c1.77-2.12,17.02-19.258,25.03-54.821c1.34-5.946,1.85-9.758,1.97-10.614       c0.1-0.756,0.12-0.786,0.71-1.269c0.01-0.01,1.36-0.423,1.37-0.419c0.41,0.226,0.94,0.317,1.24,0.683       c0.64,0.782,0.49,0.871,0.4,1.875c-0.5,5.587-3.98,38.858-21.64,64.264c-4.02,5.772-4.94,5.84-5.6,8.175       c-0.95,3.399,0.8,5.882,2.04,7.728c9.94,14.804,26.47,13.209,34.21,11.929c0.78-0.129,1.07-0.23,1.09-0.227       c1.52,0.245,1.53,0.198,1.65,0.268C2125.91,826.451,2125.93,826.487,2126.14,827.342z"></path>					</g>					<g id="Isolation-Mode" transform="matrix(1.27459,0,0,1.27459,2073.74,856.99)" serif:id="Isolation Mode">						<g transform="matrix(1.08015,0,0,1.08015,70.6756,32.2874)">							<path style="fill:#211816;" d="M0-13.13C0,2.814-15.997,15.74-35.731,15.74S-71.462,2.814-71.462-13.13        C-71.462-28.87,0-28.702,0-13.13"></path>						</g>						<g transform="matrix(1.08015,0,0,1.08015,-4.06512,10.0819)">							<path style="fill:#FFFFFF;" d="M0,2.876c5.174,3.704,15.26,7.215,34.918,7.215c18.471,0,27.892-3.1,32.664-6.547        C58.243-6.992,10.942-7.215,0,2.876"></path>						</g>						<g transform="matrix(-0.00898014,1.08011,1.08011,0.00898014,32.2067,20.7444)">							<path style="fill:#FFFFFF;" d="M20.918-21.235c3.521,5.976,5.575,13.359,5.508,21.338c-0.064,7.711-2.104,14.829-5.508,20.64        c-2.838-3.291-5.465-9.585-5.365-21.636C15.649-12.453,18.163-18.301,20.918-21.235"></path>						</g>					</g>					<g transform="matrix(-1.06964,0.150328,0.132267,0.941125,4145.76,-272.334)">						<path style="fill-rule:evenodd;clip-rule:evenodd;fill:#211816;" d="M2084.75,680.869c2.99,2.336,4.61,6.365,4.19,10.466       c-0.39,3.804-2.29,7.765-8.88,6.324c-10.81-2.365-39.08-4.425-60.02-1.667c-1.55,0.239-3.11-0.259-4.32-1.374       c-1.22-1.116-1.97-2.751-2.09-4.519c-0.3-5.451,0.78-12.45,8.09-13.872C2037.78,673.1,2071.83,670.839,2084.75,680.869z"></path>					</g>					<g transform="matrix(1.06964,0.150328,-0.132267,0.941125,84.3827,-272.334)">						<path style="fill-rule:evenodd;clip-rule:evenodd;fill:#211816;" d="M2084.75,680.869c2.99,2.336,4.61,6.365,4.19,10.466       c-0.39,3.804-2.29,7.765-8.88,6.324c-10.81-2.365-39.08-4.425-60.02-1.667c-1.55,0.239-3.11-0.259-4.32-1.374       c-1.22-1.116-1.97-2.751-2.09-4.519c-0.3-5.451,0.78-12.45,8.09-13.872C2037.78,673.1,2071.83,670.839,2084.75,680.869z"></path>					</g>					<g transform="matrix(1.53683,0,0,1.53683,436.737,-153.475)">						<path style="fill-rule:evenodd;clip-rule:evenodd;fill:#EF8E71;" d="M1203.58,688.245       c-11.04,25.147-46.87,91.41-117.31,89.942c0.16-10.23,0.25-20.65,0.19-29.851       C1143.35,749.966,1185.71,709.131,1203.58,688.245z"></path>					</g>					<g transform="matrix(1.08015,0,0,1.08015,-168.346,-56.648)">						<path style="fill-rule:evenodd;clip-rule:evenodd;fill:#211816;" d="M1965.12,522.367c0,0-46.01,3.605-52.79,62.812       c0,0-1.7-57.443,52.04-69.389L1965.12,522.367z"></path>					</g>					<g transform="matrix(1.07944,-0.0392808,0.0392808,1.07944,-189.043,32.2421)">						<path style="fill-rule:evenodd;clip-rule:evenodd;fill:#211816;" d="M2252.43,431.756c0,0,42.7-5.229,74.25,12.026       c0,0-22.31-19.172-78.08-15.337L2252.43,431.756z"></path>					</g>					<g transform="matrix(1.08015,0,0,1.08015,-174.514,-62.0722)">													<path style="fill-rule:evenodd;clip-rule:evenodd;fill:#626262;stroke:#383838;stroke-width:2.1043;stroke-linecap:round;stroke-linejoin:round;stroke-miterlimit:10;" d="       M2090.82,426.859c-0.43,0.371-1.08,0.351-1.49-0.046c-0.4-0.397-0.44-1.04-0.08-1.482c13.98-14.804,45.35-38.713,94.93-26.227       c0.56,0.143,0.91,0.698,0.79,1.262c-0.11,0.565-0.65,0.94-1.22,0.854C2162.87,399.076,2124.4,399.89,2090.82,426.859z"></path>					</g>				</g>				<g>					<g transform="matrix(1,0,0,1,443.505,545.701)">						<path style="fill:#434D56;" d="M0,797.492c0.032,1.49-1.171,2.713-2.66,2.713H-61.9c-1.319,0-2.436-0.947-2.628-2.245       c-2.692-17.632-20.623-136.143-35.914-260.389c-10.833-87.981-24.975-156.074-33.477-192.712       c-4.523-19.452-7.449-30.04-7.449-30.04c-5.172,15.834-8.821,36.138-11.312,57.899l-0.01,0.011       c-5.502,48.034-5.321,103.134-3.182,132.727c2.916,40.34,10.854,264.56,11.822,291.993c0.054,1.511-1.149,2.756-2.66,2.756       h-57.803c-1.245,0-2.319-0.851-2.596-2.053c-10.152-43.97-78.287-299.613-68.487-388.839       c7.896-71.892,21.379-193.765,26.646-241.278c0.202-1.798,0.383-3.48,0.553-5.054c1.043-9.365,1.639-14.749,1.639-14.749       l8.002-134.888l27.454-2.128l2.544-0.191l64.815-5.023l0.426-0.032l112.126-8.683l29.827,127.949       c0,0-0.458,14.855-1.086,38.032c-0.053,1.724-0.106,3.501-0.149,5.32c-1.128,41.948-2.724,107.125-3.362,162.289       C-7.151,416.059-0.649,763.334,0,797.492"></path>					</g>					<g style="opacity:0.15;">						<g transform="matrix(1,0,0,1,309.586,742.243)">							<path d="M0,148.317c-4.522-19.452-7.449-30.04-7.449-30.04c-5.171,15.834-8.821,36.137-11.311,57.899l-0.011,0.01        c0,0,3.618-62.485-2.181-107.433c-5.8-44.948-3.214-64.283-9.333-72.019c-6.033-7.609-20.186-24.092-20.622-24.603        c0.628,0.447,24.198,17.484,27.539,26.539C-19.984,7.854,0,148.317,0,148.317"></path>						</g>					</g>					<g transform="matrix(1,0,0,1,357.833,455.632)">						<path style="fill:#F4E3D3;" d="M0-87.801l-22.017,258.889c0,0-124.81,0.841-130.982-1.681       c-6.172-2.522,21.315-309.094,33.658-339.943c8.237-20.591,20.091-35.552,27.071-43.235c0.213-0.234,0.426-0.468,0.628-0.692       c3.129-3.384,5.119-5.161,5.119-5.161s4.49-5.895,8.97-5.895c0,0,2.267,9.056,9.418,11.205       c0.234,0.075,0.478,0.139,0.734,0.192c0.17,0.042,0.34,0.074,0.511,0.106c0,0,0.117-0.042,0.351-0.138       c0.064-0.021,0.138-0.053,0.223-0.085c6.023-2.416,57.271-23.581,58.324-45.491c0,0,13.738,13.45,15.984,22.421v0.01       c0.117,0.447,0.191,1.245,0.244,2.341C9.226-214.473,0-87.801,0-87.801"></path>					</g>					<g transform="matrix(-1,0,0,1,518.877,-129.956)">													<rect x="210.402" y="785.161" transform="matrix(0.9999 -0.0125 0.0125 0.9999 -9.5954 3.3022)" style="fill-rule:evenodd;clip-rule:evenodd;fill:#21282D;" width="98.073" height="-31.406"></rect>					</g>					<g transform="matrix(1,0,0,1,269.811,622.447)">						<path style="fill:#F4F4F4;" d="M0,33.846h-34.284c-3.421,0-6.194-2.773-6.194-6.194V6.194c0-3.421,2.773-6.194,6.194-6.194H0       c3.421,0,6.194,2.773,6.194,6.194v21.458C6.194,31.073,3.421,33.846,0,33.846"></path>					</g>					<g style="opacity:0.15;">						<g transform="matrix(1,0,0,1,365.825,276.189)">							<path d="M0-57.856c-3.32,9.237-7.151,18.303-11.546,27.071c-2.383,4.725-4.958,9.354-7.863,13.759        c-2.927,4.363-6.151,8.619-10.184,11.908c-2.011,1.617-4.289,2.958-6.736,3.49c-1.224,0.255-2.479,0.287-3.703,0.064        c-0.617-0.117-1.245-0.298-1.873-0.437c-0.628-0.18-1.234-0.404-1.852-0.595c-4.884-1.777-9.215-4.895-13.056-8.45        c-0.543-0.51-1.086-1.021-1.618-1.553c-3.192-3.182-6.065-6.693-8.726-10.354c-2.617-3.639-5.033-7.459-7.172-11.397        c-0.032-0.053-0.053-0.106-0.085-0.159c0.032-0.096,0.075-0.192,0.107-0.288c-0.085,0.032-0.16,0.064-0.224,0.086        c-0.234,0.095-0.351,0.138-0.351,0.138c-0.17-0.032-0.34-0.064-0.511-0.106c-0.255-0.054-0.5-0.118-0.734-0.192        c0.149,0.287,0.298,0.575,0.447,0.851c-0.575,1.32-1.171,2.639-1.788,3.948c-1.234,2.618-2.532,5.204-3.99,7.704        c-1.458,2.48-3.012,4.917-4.874,7.066c-0.702,0.798-1.447,1.564-2.256,2.213c-0.266,0.213-0.542,0.415-0.83,0.607        c-1.128,0.766-2.426,1.256-3.671,1.096c-1.224-0.138-2.384-0.958-3.331-1.926c-0.947-0.979-1.66-2.192-2.181-3.49        c-1.043-2.618-1.405-5.502-1.532-8.364c-0.128-2.884,0.042-5.779,0.361-8.662c0.043-0.394,0.086-0.798,0.139-1.192        c-0.202,0.223-0.415,0.457-0.628,0.692c-0.511,3.022-0.798,6.086-0.798,9.183c0.021,2.937,0.34,5.927,1.394,8.758        c0.543,1.404,1.287,2.777,2.341,3.926c0.532,0.564,1.128,1.075,1.788,1.501c0.681,0.436,1.468,0.745,2.287,0.851        c1.682,0.213,3.278-0.436,4.544-1.288c1.298-0.851,2.363-1.926,3.363-3.032c1.958-2.256,3.554-4.746,4.991-7.311        c2.032-3.597,3.766-7.332,5.299-11.152c2.053,3.714,4.342,7.268,6.821,10.716c2.756,3.82,5.767,7.47,9.13,10.779        c0.457,0.458,0.915,0.894,1.383,1.331c3.927,3.628,8.385,6.852,13.515,8.725c0.638,0.202,1.287,0.426,1.936,0.617        c0.671,0.16,1.32,0.341,2.001,0.469c1.394,0.255,2.841,0.202,4.203-0.096c2.756-0.607,5.172-2.064,7.268-3.767        c4.214-3.458,7.449-7.8,10.407-12.238c2.926-4.479,5.491-9.151,7.874-13.918c4.065-8.204,7.63-16.643,10.759-25.241        C0.191-56.611,0.117-57.409,0-57.856"></path>						</g>					</g>					<g transform="matrix(1,0,0,1,306.724,254.599)">						<path style="fill:#434D56;" d="M0,10.194l-9.173,11.301L-26.88,18.6l-2.724-8.406c1.299-0.851,2.363-1.926,3.363-3.033       c1.958-2.256,3.554-4.746,4.991-7.31c2.032-3.597,3.767-7.332,5.299-11.152c2.054,3.714,4.342,7.268,6.821,10.715       C-6.374,3.235-3.363,6.885,0,10.194"></path>					</g>					<g transform="matrix(1,0,0,1,297.711,531.534)">						<path style="fill:#434D56;" d="M0-258.101c-0.075,1.617-0.16,2.66-0.16,2.66s-0.053,0.256-0.159,0.745       c-1.575,7.619-14.706,72.137-14.706,111.988c0,40.457-2.8,136.43-2.608,144.943c0.011,0.415-0.085,0.809-0.277,1.181       l-15.844,30.679c-0.905,1.745-3.374,1.798-4.342,0.096L-56.761,1.618c-0.244-0.415-0.351-0.883-0.33-1.373       c0.83-13.418,18.038-210.663,38.416-256.824c0.266-0.607,0.532-1.192,0.808-1.756c0.66-1.341,1.288-2.607,1.905-3.788       C0.521-293.994,0.415-267.082,0-258.101"></path>					</g>					<g style="opacity:0.15;">						<g transform="matrix(0.0613983,-0.998113,-0.998113,-0.0613983,289.934,265.844)">							<path d="M-9.762-8.232c0,0-0.258,0.037-0.753,0.114l0.753,18.437c0.621-0.228,1.221-0.458,1.801-0.7L-9.762-8.232z"></path>						</g>					</g>					<g transform="matrix(1,0,0,1,470.395,236.455)">						<path style="fill:#434D56;" d="M0,497.815c-1.894,2.128-4.608,3.576-7.747,3.81c-105.23,7.842-129.567,15.663-146.933-8.066       c-25.762-35.201-23.208-93.196-24.709-180.336c-0.213-12.184-0.351-23.645-0.394-34.478       c-0.266-66.677,3.331-109.519,19.091-148.763c17.738-44.15,48.364-119.032,56.121-148.104       c0.362-1.351,2.309-1.117,3.491-0.362c9.087,5.832,41.798,26.529,61.931,35.669c16.643,7.566,25.443,12.397,29.178,14.579       c1.352,0.787,2.054,2.33,1.777,3.873l-35.445,196.819c0,0-0.064,1.107-0.15,3.097c-0.372,8.651-1.276,34.115-0.17,59.771       c0.075,1.682,0.149,3.363,0.245,5.044c0.479,8.864,1.213,17.611,2.32,25.571c2.224,16.068,11.216,50.056,20.814,83.82       c0.277,0.969,0.553,1.937,0.83,2.905c8.385,29.402,17.111,58.239,22.08,74.489C3.533,491.09,2.469,495.038,0,497.815"></path>					</g>					<g style="opacity:0.15;">						<g transform="matrix(1,0,0,1,432.343,531.736)">							<path d="M0,208.759c-0.053,1.724-0.107,3.501-0.149,5.321c-81.99,6.831-103.432,11.215-119.149-10.269        c-20.58-28.135-21.644-85.8-21.995-152.318c-0.096-16.696-0.149-33.956-0.447-51.45c-0.096-5.799-0.096-11.322,0.01-16.579        c0.043,10.833,0.181,22.293,0.394,34.478c0.202,11.694,0.33,22.867,0.468,33.519c0.862,68.774,1.937,116.34,24.241,146.816        C-101.07,219.538-79.915,215.474,0,208.759"></path>						</g>					</g>					<g style="opacity:0.15;">						<g transform="matrix(1,0,0,1,380.804,444.679)">							<path d="M0-219.458c0.579,10.088,0.905,20.186,0.987,30.29c0.049,5.052,0.035,10.106-0.079,15.163        c-0.093,5.06-0.287,10.115-0.721,15.198c-0.119,1.273-0.248,2.547-0.437,3.835c-0.165,1.28-0.479,2.636-0.906,3.911        c-0.889,2.501-2.017,4.804-3.195,7.068c-2.36,4.525-4.939,8.876-7.522,13.224c-5.194,8.675-10.505,17.254-15.75,25.874        c-10.468,17.251-20.91,34.514-30.956,52.014c-5.018,8.752-9.989,17.532-14.919,26.338C-78.414-17.73-83.239-8.866-88.066,0        c4.467-9.053,9.076-18.036,13.754-26.983l7.08-13.39l7.276-13.285c9.778-17.671,19.859-35.182,30.323-52.453        c5.201-8.653,10.469-17.268,15.597-25.941c2.548-4.341,5.093-8.693,7.376-13.131c1.141-2.215,2.218-4.469,3.006-6.73        c0.742-2.185,0.992-4.649,1.25-7.134c0.858-9.965,1.09-20.072,1.442-30.143L0-219.458z"></path>						</g>					</g>					<g style="opacity:0.15;">						<g transform="matrix(1,0,0,1,336.815,595.263)">							<path d="M0-159.598c0,0-11.83,62.699,46.919,159.598C46.919,0-0.22-81.224,0-159.598"></path>						</g>					</g>					<g transform="matrix(1,0,0,1,270.756,740.921)">						<path style="fill:#434D56;" d="M0-504.413c-3.32,7.3-20.729,47.385-25.188,81.298c-3.011,22.9-10.322,94.334-15.738,164.939       c-3.458,45.118-6.151,89.896-6.448,121.447C-48.13-55.803-47.119-3.555-60.314-2.033c-10.556,1.224-23.89,2.597-29.295,0.096       c-1.352-0.607-2.203-1.469-2.405-2.629c-1.022-5.831,2.788-285.374,6.587-319.873c3.511-31.817,6.161-120.415,6.555-133.962       c0.032-1.117,0.553-2.16,1.447-2.841c6.055-4.618,31.604-23.198,76.191-43.543C-0.83-504.977,0.192-504.817,0-504.413"></path>					</g>					<g style="opacity:0.15;">						<g transform="matrix(1,0,0,1,229.831,746.656)">							<path d="M-4.881-189.177c1.173-23.188,2.902-48.905,4.881-74.734c-1.14,24.929-2.123,50.585-2.828,74.575        c-0.315,10.714-0.575,21.096-0.769,30.932c-0.149,7.502-0.255,14.685-0.319,21.453C-4.682-56.025-3.671-3.777-16.856-2.255        c-7.164,0.824-15.6,1.725-21.976,1.441c0.206-1.856,0.407-3.675,0.604-5.456c5.854-0.046,12.802-0.796,18.84-1.497        C-6.193-9.289-7.204-61.537-6.449-142.463c0.043-4.938,0.149-10.205,0.309-15.749        C-5.867-167.797-5.436-178.204-4.881-189.177z"></path>						</g>					</g>					<g style="opacity:0.15;">						<g transform="matrix(1,0,0,1,233.691,240.423)">							<path d="M0,195.242c-0.171-8.346-0.249-16.693-0.335-25.039c-0.106-8.347-0.12-16.694-0.131-25.041l0.012-25.042        c0.046-8.348,0.162-16.695,0.288-25.043c0.147-8.349,0.292-16.696,0.608-25.055c0.212-4.173,0.26-8.371,0.965-12.622        c0.358-2.135,0.972-4.158,1.533-6.204c0.67-1.997,1.268-4.027,2.024-5.985c2.919-7.881,6.346-15.521,9.99-23.046        C18.63,14.656,22.509,7.251,26.657,0c-3.507,7.58-6.944,15.183-10.274,22.824c-1.674,3.815-3.301,7.65-4.867,11.504        c-0.778,1.928-1.578,3.849-2.302,5.795l-1.108,2.91l-1.04,2.93c-0.735,1.942-1.301,3.924-1.947,5.886        C4.592,53.832,4.006,55.811,3.69,57.8c-0.659,3.982-0.767,8.164-0.993,12.317c-0.366,8.319-0.563,16.662-0.762,25L0,195.242z        "></path>						</g>					</g>				</g>				<g>					<g transform="matrix(1,0,0,1,191.844,494.305)">						<path style="fill:#434D56;" d="M0-210.57c0,0-81.782,92.399-102.683,111.116c-1.662,1.488-4.306,0.48-4.576-1.734       l-18.395-111.469l-56.988,11.625c0,0,13.518,178.517,36.273,188.614c32.687,14.505,61.97,5.084,139.858-65.4       C71.378-148.302,0-210.57,0-210.57"></path>					</g>					<g style="opacity:0.15;">						<g transform="matrix(1,0,0,1,185.334,310.619)">							<path d="M0,105.868c0,0-1.502-56.31,7.015-105.868L0,105.868z"></path>						</g>					</g>				</g>				<g transform="matrix(1.30725,0.533338,-0.533338,1.30725,-1312.96,-1759.1)">					<g transform="matrix(0.361903,-0.147651,0.147651,0.361903,994.51,757.271)">						<path style="fill-rule:evenodd;clip-rule:evenodd;fill-opacity:0.15;" d="M1158.359,1666.51       c-5.91-3.13-11.38-6.95-16.43-11.17c-29.71-24.82-45.28-63.77-53.66-62.44c-2.22,0.35-4.93-0.91-7.92-3.24       c2.2-155.89,6.46-363.72,10.71-402.32c2.03-18.36,3.89-47.17,5.52-78.7l153.34-209.666       c60.87,125.796,31.11,216.426,18.7,310.436c-12.42,94.01,23.23,172.47,91.54,272.57c68.31,100.1-85.9,183.96-157.59,192.75       C1185.589,1676.82,1170.959,1673.21,1158.359,1666.51z"></path>					</g>					<g transform="matrix(0.336246,-0.137183,0.137183,0.336246,1047.38,785.838)">						<path style="fill-rule:evenodd;clip-rule:evenodd;fill:#394249;" d="M1284.521,1486.501l-15.9-144.13l16.36,0.89l-1.73-12.47       c0,0,91.45-6.78,153.34-31.61c20.05-8.04,40.47-16.24,60.61-23.98c15.41-5.93,29.63-11.12,42.56-15.63       c-0.76,17.9-2.4,66.48-0.29,115.41c0.15,3.28,0.29,6.56,0.48,9.84c0.94,17.29,2.37,34.34,4.53,49.87       c0.86,6.23,2.24,13.84,4.05,22.55c-104.83,19.16-241.59,44.3-241.59,44.3l-2.74-19.72L1284.521,1486.501z"></path>					</g>					<g transform="matrix(0.411537,-0.539582,0.539582,0.411537,1021.21,1125.32)">						<path style="fill-rule:evenodd;clip-rule:evenodd;fill:#E7AD33;" d="M642.164,708.069l-145.629,0       c0,0-5.85-75.693-53.196-118.87c-38.95-35.519-71.607-85.547-72.397-154.553c-0.993-86.839,57.062-197.308,198.407-197.308       c141.346,0,199.401,110.469,198.407,197.308c-0.789,69.006-33.446,119.034-72.396,154.553       C648.013,632.376,642.164,708.069,642.164,708.069z"></path>						<path style="fill-rule:evenodd;clip-rule:evenodd;fill:#F4FBFC;" d="M495.143,539.097c1.131-0.51,2.3-1.361,3.535-2.548       c2.256-2.168,4.603-5.375,7.075-9.794c5.441-9.728,9.8-18.57,13.218-26.517c-2.222-11.302-3.034-23.011-2.716-32.56       c0.296-8.903,1.656-15.998,3.567-19.47c0.776-1.411,1.69-2.385,2.606-2.983l1.381-0.658l1.604-0.249       c4.621,0,8.602,3.084,10.127,10.062c1.856,8.492-0.182,24.11-9.49,46.528c1.568,7.341,3.787,14.412,6.759,20.403       c4.556,9.183,10.805,15.866,19.65,15.866c9.082,0,16.847-7.569,23.298-17.96c1.533-2.47,2.984-5.107,4.345-7.863       c-5.194-11.969-7.633-26.997-7.557-40.42c0.064-11.339,1.947-21.527,5.265-27.877c2.799-5.355,6.713-8.205,11.161-8.205       c3.753,0,6.739,2.015,8.741,5.926c2.183,4.264,3.136,11.27,2.744,19.749c-0.686,14.864-5.315,34.491-12.817,50.862       c0.776,1.547,1.61,3.022,2.503,4.413c4.551,7.084,10.65,11.909,18.663,11.909c9.036,0,16.297-4.845,21.892-11.825       c-0.453-1.348-0.879-2.72-1.278-4.112c-4.306-15.024-5.442-32.267-3.042-44.026c0.94-4.606,2.441-8.422,4.408-11.11       c2.433-3.324,5.58-5.107,9.341-5.107c3.273,0,5.983,1.562,7.997,4.521c2.247,3.302,3.592,8.705,3.742,15.271       c0.311,13.535-4.227,32.275-13.509,45.705c2.361,6.153,5.352,11.544,8.981,15.346c2.627,2.752,5.187,4.124,7.687,4.29       c2.458-7.662,4.736-14.254,6.783-19.421c2.784-7.027,5.382-11.599,7.302-13.218l0.792-0.577l0.98-0.483l1.665-0.305       l1.515,0.263l1.274,0.694c2.202,1.678,3.559,4.517,3.816,8.146c0.299,4.214-0.881,9.651-3.232,14.811       c-2.447,5.371-6.146,10.419-10.5,13.526c-1.641,1.171-3.377,2.075-5.18,2.658c-14.482,46.018-34.702,125.822-50.923,171.179       c-0.634,1.775-2.591,2.701-4.365,2.066c-1.775-0.635-2.701-2.591-2.066-4.366c15.89-44.434,35.625-121.887,50.052-168.357       c-3.424-0.613-7.006-2.487-10.541-6.189c-3.441-3.606-6.432-8.447-8.908-14.006c-6.561,6.979-14.823,11.457-24.683,11.457       c-10.379,0-18.516-5.872-24.41-15.049c-0.155-0.241-0.309-0.486-0.461-0.732c-0.769,1.393-1.561,2.748-2.374,4.058       c-7.893,12.716-17.987,21.189-29.101,21.189c-11.352,0-19.922-7.876-25.769-19.661c-2.014-4.061-3.71-8.588-5.111-13.359       c-2.807,5.964-6.079,12.333-9.864,19.101c-3.391,6.063-6.664,10.123-9.706,12.638c-1.761,1.456-3.483,2.44-5.15,3.035       c16.284,64.524,34.176,170.969,34.176,170.969c0.311,1.859-0.945,3.621-2.804,3.932c-1.859,0.312-3.622-0.945-3.933-2.804       c0,0-18.033-108.025-34.264-171.691c-3.66-0.893-7.032-3.597-9.856-7.58c-6.359-8.971-10.178-24.61-10.497-33.677       c-0.119-3.375,0.317-5.98,1.015-7.391l0.681-1.072l0.693-0.702l0.766-0.511l0.917-0.361l0.984-0.147l0.941,0.065l1.206,0.375       l0.962,0.551c1.361,0.949,3.3,3.305,5.536,7.72C486.921,510.425,490.955,523.175,495.143,539.097z M487.606,536.937       c-3.665-13.478-7.184-24.226-10.317-30.412c-0.244-0.482-0.503-0.951-0.764-1.398c0.108,2.251,0.45,4.928,0.998,7.787       c1.473,7.678,4.413,16.683,8.646,22.296C486.636,535.829,487.114,536.411,487.606,536.937z M663.435,532.887       c2.568-2.45,4.713-5.732,6.268-9.145c1.829-4.014,2.867-8.218,2.635-11.496c-0.022-0.302-0.049-0.595-0.087-0.876       c-1.124,1.974-2.79,5.097-4.094,8.389C666.695,523.45,665.115,527.869,663.435,532.887z M635.607,508.535       c6.527-11.666,9.679-26.202,9.43-37.056c-0.098-4.23-0.691-7.869-1.913-10.438c-0.729-1.533-1.593-2.68-2.998-2.68       c-1.58,0-2.807,0.914-3.829,2.311c-1.487,2.032-2.517,4.959-3.228,8.442C630.919,479.654,631.926,494.946,635.607,508.535z        M584.023,502.499c5.615-14.153,9.041-29.953,9.61-42.287c0.274-5.939-0.095-11.035-1.307-14.64       c-0.745-2.219-1.592-3.889-3.355-3.889c-2.193,0-3.727,1.897-5.107,4.537c-2.942,5.631-4.432,14.698-4.489,24.753       C579.317,481.273,580.791,492.615,584.023,502.499z M523.909,487.564c3.909-11.314,5.524-20.23,5.459-26.713       c-0.035-3.577-0.556-6.294-1.62-8.095c-0.464-0.785-1.033-1.33-1.736-1.526c-0.208,0.347-0.532,0.917-0.72,1.411       c-1.255,3.29-1.993,8.72-2.211,15.264C522.885,473.808,523.132,480.589,523.909,487.564z"></path>						<g transform="matrix(0.910751,0,0,1,59.8921,0)">							<path style="fill-rule:evenodd;clip-rule:evenodd;fill:#3E3533;" d="M646.565,708.069c2.46,0,4.454,1.816,4.454,4.056        c0,6.044,0,17.349,0,23.392c0,2.241-1.994,4.057-4.454,4.057c-25.154,0-149.212,0-174.366,0c-2.46,0-4.454-1.816-4.454-4.057        c0-6.043,0-17.348,0-23.392c0-2.24,1.994-4.056,4.454-4.056C497.353,708.069,621.411,708.069,646.565,708.069z"></path>						</g>						<g transform="matrix(1,0,0,1,-0.634468,0)">							<path style="fill-rule:evenodd;clip-rule:evenodd;fill:#3E3533;" d="M640.76,739.574v42.072        c0,20.281-16.44,36.721-36.72,36.721h-68.112c-20.28,0-36.721-16.44-36.721-36.721v-42.072L640.76,739.574z"></path>						</g>						<path style="fill-rule:evenodd;clip-rule:evenodd;fill:#352D2B;" d="M498.573,759.494c-1.47,0-2.664-1.194-2.664-2.664       c0-1.47,1.194-2.664,2.664-2.664l141.553,0c1.47,0,2.664,1.194,2.664,2.664c0,1.47-1.194,2.664-2.664,2.664L498.573,759.494z"></path>						<g transform="matrix(1,0,0,1,0,12.1376)">							<path style="fill-rule:evenodd;clip-rule:evenodd;fill:#352D2B;" d="M498.573,759.494c-1.47,0-2.664-1.194-2.664-2.664        c0-1.47,1.194-2.664,2.664-2.664l141.553,0c1.47,0,2.664,1.194,2.664,2.664c0,1.47-1.194,2.664-2.664,2.664L498.573,759.494z        "></path>						</g>						<g transform="matrix(1,0,0,1,0,24.2753)">							<path style="fill-rule:evenodd;clip-rule:evenodd;fill:#352D2B;" d="M498.573,759.494c-1.47,0-2.664-1.194-2.664-2.664        c0-1.47,1.194-2.664,2.664-2.664l141.553,0c1.47,0,2.664,1.194,2.664,2.664c0,1.47-1.194,2.664-2.664,2.664L498.573,759.494z        "></path>						</g>						<path style="fill-rule:evenodd;clip-rule:evenodd;fill:#352D2B;" d="M498.573,748.486v-8.912l141.553,0v10.396       c-14.845-2.131-43.591-5.669-70.777-5.669C539.776,744.301,510.776,747.13,498.573,748.486z"></path>						<g transform="matrix(0.429976,0.253,-0.253,0.429976,383.686,-233.644)">							<path style="fill-rule:evenodd;clip-rule:evenodd;fill:#FFFFFF;fill-opacity:0.15;" d="M743.467,742.637        c-0.816-6.493-5.395-11.887-11.669-13.747c-6.273-1.86-13.053,0.168-17.275,5.168        c-38.172,46.688-105.848,156.743-71.064,320.264c1.437,6.84,7.02,12.04,13.947,12.99c6.928,0.95,13.704-2.56,16.929-8.76        C705.017,998.5,758.059,872.578,743.467,742.637z"></path>						</g>					</g>					<g transform="matrix(0.511776,-0.0737179,0.0737179,0.511776,625.299,712.666)">						<path style="fill-rule:evenodd;clip-rule:evenodd;fill:#FBC0A4;" d="M1916.211,951.344c0,0-17.04,10.786-27.35,12.506       c-10.32,1.719-28.14-0.626-46.74-3.752c-18.61-3.127-26.89,2.97-36.9,5.628c-10,2.657-10.32,6.878-9.54,9.223       c0.79,2.345,9.39,11.412,45.97,5.941c0,0-28.92,14.695-39.09,16.101c-10.16,1.407-28.61,0.313-37.36-0.156       c-8.75-0.469-16.26,3.438-12.66,12.978c0,0-10.32-1.88-11.73,4.38c-1.4,6.25,1.41,11.25,9.07,13.44c0,0-2.34,7.03,9.07,11.41       c11.41,4.38,17.82,6.57,17.82,6.57s-2.66,5.47,13.29,10.47c15.94,5,26.73,9.54,47.21,2.19c20.48-7.35,31.89-13.29,43.77-22.04       c11.88-8.76,12.82-9.23,30.17-14.23c17.35-5,24.86-7.81,24.86-7.81S1922.621,960.723,1916.211,951.344z"></path>						<path style="fill-rule:evenodd;clip-rule:evenodd;fill:#FDE6DB;" d="M1799.481,967.914c0.48,2.15,1.79,5.156,5.38,5.299       c5.6,0.224,11.48-2.297,12.27-4.818c0.43-1.403-0.54-4.088-1.48-6.195c-3.61,1.233-6.91,2.591-10.43,3.525       C1802.761,966.377,1800.891,967.124,1799.481,967.914z"></path>						<path style="fill-rule:evenodd;clip-rule:evenodd;fill:#F69D7D;" d="M1837.481,1006.472c-0.26,0.34-0.45,0.73-0.71,1.07       c-0.01,0.01-24.14,9.47-34.9,9.77c-9.24,0.26-33.8-4.01-44.98-6.06c-2.46-0.45-3.67-0.84-3.67-0.84l0,0       c-0.2-0.18-0.3-0.46-0.24-0.73c0.05-0.27,0.23-0.49,0.49-0.59c0.11-0.04,0.22-0.09,0.34-0.1c0.03-0.01,36.72,6.28,47.99,5.98       c7.49-0.2,24.06-5.32,33.68-8.58c0.21-0.07,0.42-0.14,0.64-0.21c0.04-0.02,0.08-0.06,0.13-0.05       C1836.881,1006.263,1836.861,1006.343,1837.481,1006.472z"></path>						<path style="fill-rule:evenodd;clip-rule:evenodd;fill:#F69D7D;" d="M1849.281,1022.073c-0.33,0.25-0.37,0.78-0.7,1.03       c-0.04,0.02-27.32,9.84-38.03,11.55c-1.76,0.28-6,0.98-31.23-2.08c-13.16-1.59-28.96-4.1-28.98-4.12       c-0.01-0.01-0.02-0.02-0.03-0.02c-0.2-0.17-0.3-0.44-0.26-0.7c0.03-0.26,0.2-0.48,0.44-0.59c0.13-0.06,0.25-0.12,0.38-0.14       c0.02,0,19.21,2.47,37.35,4.06c19.57,1.72,21.46,0.94,22.16,0.82c0.53-0.08,5.7-0.73,28.71-7.51c2.7-0.8,6.6-1.97,8.87-2.66       c0.05-0.02,0.09-0.06,0.14-0.05C1848.701,1021.833,1848.681,1021.903,1849.281,1022.073z"></path>						<path style="fill-rule:evenodd;clip-rule:evenodd;fill:#F69D7D;" d="M1856.631,1036.753c-0.31,0.28-0.37,0.77-0.68,1.05       c-0.04,0.04-25.96,10.17-37.91,11.34c-0.27,0.03-9.41,1.38-36.62-2c-2.7-0.34-3.77-0.52-3.77-0.53l0,0       c-0.22-0.19-0.32-0.48-0.27-0.76c0.04-0.28,0.23-0.52,0.49-0.64c0.07-0.02,0.14-0.04,0.22-0.06       c0.21-0.05,29.56,3.13,42.03,1.09c0.64-0.11,9.76-1.4,32.37-8.87c2.86-0.95,2.85-1.02,2.94-0.99       C1855.831,1036.493,1856.231,1036.643,1856.631,1036.753z"></path>					</g>					<g transform="matrix(3.06694,-2.05202,2.05202,3.06694,1651.37,881.602)">						<g transform="matrix(1,0,0,1,10.37,0)">							<path style="fill:#434D56;" d="M0,17.702c-4.88,0-8.85-3.971-8.85-8.851S-4.879,0,0,0c4.881,0,8.852,3.971,8.852,8.851        S4.881,17.702,0,17.702"></path>						</g>						<g transform="matrix(1,2.77556e-17,2.77556e-17,1.1058,7.02,5.63411)">							<path style="fill:#434D56;" d="M-0.601,40.741l-0.058-0.938c-0.167-2.704-1.791-21.588-4.565-34.41l-0.2-0.928l17.021-4.466        l0.258,0.777c3.297,11.016,2.791,37.791,2.794,38.964l0.002,1.002L-0.601,40.741L-0.601,40.741z"></path>						</g>						<g transform="matrix(1,0,0,1,14.0384,42.2499)">							<path style="fill:#434D56;" d="M0,15.312c-3.48,0-6.524-2.355-7.402-5.727C-8.465,5.5-6.007,1.312-1.923,0.248        C-1.289,0.083-0.64,0,0.01,0c3.48,0,6.525,2.355,7.404,5.728C8.478,9.813,6.019,14,1.935,15.064        C1.301,15.228,0.65,15.312,0,15.312"></path>						</g>					</g>					<g transform="matrix(1.20575,3.48756,-3.48756,1.20575,2002.78,894.973)">						<g transform="matrix(0,1,1,0,19.0116,94.5099)">							<path style="fill:#F4E3D3;" d="M4.418-5.942l3.634,0L5.842,6.695L1.395,5.447L4.418-5.942z"></path>						</g>						<g transform="matrix(1.18007,0.00531842,0.00531842,-1.18007,9.54686,73.7548)">							<path style="fill:#434D56;" d="M0.034,0c-4.221,0-7.655,3.433-7.655,7.655c0,4.221,3.434,7.655,7.655,7.655        c4.222,0,7.655-3.434,7.655-7.655C7.689,3.435,4.256,0,0.034,0"></path>						</g>						<g transform="matrix(1,0,0,1,8.45158,79.1299)">							<path style="fill:#434D56;" d="M0,8.031C-0.806,6.207-1.627,4.35-2.407,2.516C-5.497-4.743-6.68-9.131-6.729-9.315        l-0.26-0.976l17.177-4.721l0.203,1.039c0.237,1.212,8.083,33.034,8.083,33.034L3.526,22.13C3.526,22.13,2.488,13.66,0,8.031"></path>						</g>					</g>					<g transform="matrix(0.336246,-0.137183,0.137183,0.336246,1026.28,795.909)">						<path style="fill-rule:evenodd;clip-rule:evenodd;fill:#394249;" d="M1617.531,1176.771c0,0,32.67-121.64,40.55-211.183       L1617.531,1176.771z"></path>					</g>				</g>			</g>			<g transform="matrix(-1.53883,4.18935e-49,4.18935e-49,1.53883,786.01,820.844)">				<g>					<g transform="matrix(1,0,0,1,202.608,717.452)">						<path style="fill:#FBC0A4;" d="M0,504.666c0,0,50.347-33.605,50.321-62.712c-0.051-57.244,12.46-83.995,12.46-83.995       s24.739-100.479,26.838-135.4c0.816-13.56,0.619-27.663-0.155-41.713c-2.012-36.391-7.92-72.516-10.319-98.424       c-1.101-11.841-1.47-21.541-0.404-28.171C83.058,27.509-17.146,0-10.56,58.568c0,0,20.062,172.435,21.936,224.055       c0,0,5.676,121.624,0.559,147.421c-5.116,25.797-33.931,57.08-33.931,57.08v0.009C-25.866,502.835,0,504.666,0,504.666"></path>					</g>					<g transform="matrix(1,0,0,1,275.089,1207.25)">						<path style="fill:#FBC0A4;" d="M0-427.541c0,0,3.164,37.139,14.55,88.415c0.98,4.394,2.012,8.9,3.112,13.492       c3.483,14.515,7.602,29.924,12.452,45.772c24.283,79.283,42.606,126.838,47.937,147.42c0,0,11.679,46.891,6.563,72.688       c-5.116,25.797-33.932,57.08-33.932,57.08v0.009c-3.861,15.701,21.997,17.533,21.997,17.533s50.311-33.64,52.452-62.67       c1.393-18.849-1.954-37.192-3.511-48.095c-1.066-7.55-1.745-15.135-2.003-22.745c-0.697-21.119-2.86-66.236-4.27-121.579       c-1.978-77.803-30.724-143.706-39.642-160.56c-8.917-16.845-7.429-41.628-7.429-41.628l-5.796,11.893L0-427.541z"></path>					</g>					<g transform="matrix(1,0,0,1,173.183,629.933)">						<path style="fill:#434D56;" d="M0-0.069c6.939,80.693,13.87,159.124,15.409,176.434c0.181,2.055,1.789,3.68,3.836,3.878       c20.112,1.995,134.04,12.959,177.388,8.461c1.393-0.137,2.433-1.332,2.408-2.734c-0.387-18.299-2.296-133.654,9.88-173.218       c6.131-19.915,9.854-38.326,10.946-56.418c0.095-1.487,0.172-2.975,0.224-4.463c0.714-19.45-1.668-38.652-7.447-59.092       c-11.583-40.957-21.514-86.05-21.514-86.05l-85.07,1.453l-0.138,0.009l-83.995,1.436C21.927-190.373-7.859-91.502,0-0.069"></path>					</g>					<g style="opacity:0.15;">						<g transform="matrix(1,0,0,1,264.37,575.527)">							<path d="M0-63.32c0,0,0.217,41.218,8.472,63.32L0-63.32z"></path>						</g>					</g>					<g style="opacity:0.15;">						<g transform="matrix(1,0,0,1,241.337,583.891)">							<path d="M0-65.71c0,0-4.224,31.063,0.145,65.71L0-65.71z"></path>						</g>					</g>				</g>				<g>					<g transform="matrix(1,0,0,1,415.707,10.0405)">						<path style="fill:#262423;" d="M0,237.362c-6.634,7.658-14.861,11.806-28.229,14.338c-8.258,1.57-18.478,2.524-31.492,3.309       c-34.078,2.07-102.512-9.759-102.512-9.759l-0.007,0.008c-0.277,0.208-6.819,5.103-16.262,7.873       c-11.975,3.525-16.364-1.632-30.863-18.787c-15.515-18.355-18.188-22.265-13.678-33.024c3.102-7.396,6.51-14.077,9.428-18.216       c7.396-10.49,8.858-15.945,10.285-23.457c0,0-21.402-8.442-20.279-27.028c1.132-18.586,9.859-32.385,10.421-56.882       c0.562-24.496,16.893-56.881,34.355-67.863c17.455-10.983,48.431-27.591,79.685-10.698s41.112,25.905,45.053,74.059       c3.94,48.147,18.024,57.721,33.231,70.111c15.2,12.391,15.484,13.514,15.2,19.71c-0.277,6.195,7.888,14.084,5.071,21.964       c-2.816,7.881-4.733,13.237,0.593,19.148C5.318,208.079,10.728,224.979,0,237.362"></path>					</g>					<g style="opacity:0.2;">						<g transform="matrix(1,0,0,1,387.478,100.185)">							<path d="M0,161.555c-8.258,1.57-18.478,2.524-31.492,3.309c-34.078,2.071-102.512-9.758-102.512-9.758l-0.007,0.007        c-0.277,0.208-6.819,5.103-16.262,7.873c-16.37-32.7,21.776-66.133,1.37-93.483c-16.543-22.173,42.605-64.162,42.605-64.162        S-53.464-5.38-52.98,47.569C-52.587,89.689-15.254,141.945,0,161.555"></path>						</g>					</g>					<g transform="matrix(1,0,0,1,323.077,175.571)">						<path style="fill:#FBC0A4;" d="M0,26.166c0,0-59.532,41.641-79.312,29.098c-19.78-12.542-16.122-15.681-16.122-15.681       s27.082-5.893,28.718-11.206c0.625-2.024,0.877-7.926,0.952-14.467c0.121-10.656-0.228-23-0.228-23l62.559-32.551       c0,0-0.12,1.474-0.293,3.923c0,0.004,0,0.004-0.004,0.008C-4.327-29.246-5.1-20.328-4.099-9.058       C-2.806,5.48,0,26.166,0,26.166"></path>					</g>					<g transform="matrix(1,0,0,1,319.644,189.481)">						<path style="fill:#F69D7D;" d="M0-55.551c0,0-0.12,1.474-0.293,3.924c0,0.003,0,0.003-0.004,0.007       C-11.446-11.032-41.818-4.725-48.472-4.219C-55.127-3.716-62.331,0-62.331,0c0.121-10.656-0.228-22.999-0.228-22.999L0-55.551       z"></path>					</g>					<g transform="matrix(1,0,0,1,326.616,95.8269)">						<path style="fill:#FBC0A4;" d="M0,17.568c-1.195-34.472-27.115-80.662-56.304-81.532c-29.188-0.87-40.922,3.3-42.934,37.734       c-3.532,60.449,0.431,71.891,8.656,87.949c5.971,11.658,21.468,19.426,28.238,19.627C-26.932,82.402,1.164,51.134,0,17.568"></path>					</g>					<g transform="matrix(1,0,0,1,335.019,100.595)">						<path style="fill:#FBC0A4;" d="M0,31.251c-5.838,5.496-10.826,1.294-10.826,1.294c-3.498-7.826,1.512-20.809,1.512-20.809       C-9.312,4.659-3.549-5.496,5.878-1.869c0.899,0.34,1.831,0.812,2.793,1.423C19.739,6.567,7.738,23.961,0,31.251"></path>					</g>					<g transform="matrix(1,0,0,1,342.13,121.145)">						<path style="fill:#F69D7D;" d="M0-12.437C0.75-8.118-1.847-4.426-4.706-1.102c-2.979,3.464-4.11,4.078-5.259,4.691       c-1.15,0.613-2.178,0.625-2.611-0.604c-0.419-1.188,0.523-2.371,1.268-3.387c0.745-1.015,3.067-2.875,2.089-3.668       c-0.455-0.369-1.462-1.277-1.271-2.237c0.249-1.252,0.347-2.017,0.584-3.271c0.309-1.631,1.006-3.384,1.579-4.259       c0.948-1.45,2.482-2.814,4.2-2.596C-2.329-16.204-0.31-14.222,0-12.437"></path>					</g>					<g transform="matrix(1,0,0,1,282.78,153.102)">						<path style="fill:#3E3533;" d="M0-6.607c-0.5-0.523-2.203,0.08-4.746,0.799c-2.536,0.732-6.009,1.516-9.849,1.53       c-3.842,0.011-7.313-0.752-9.846-1.469c-2.54-0.703-4.241-1.295-4.743-0.769c-0.237,0.252-0.127,0.752,0.35,1.428       c0.475,0.676,1.339,1.506,2.591,2.345c1.248,0.839,2.903,1.657,4.887,2.27c1.98,0.614,4.295,0.996,6.752,0.996       c2.457-0.015,4.773-0.412,6.755-1.039c1.986-0.624,3.643-1.453,4.895-2.3c1.255-0.846,2.122-1.682,2.599-2.361       C0.124-5.856,0.236-6.357,0-6.607"></path>					</g>					<g transform="matrix(1,0,0,1,302.059,91.842)">						<path style="fill:#3E3533;" d="M0,4.608c-0.093-0.101-0.188-0.193-0.283-0.283C-5.55-0.69-11.676-2.546-17.98-0.922       c-0.546,0.139-1.124,0.33-1.617,1.076c-0.936,1.424-1.116,3.058-1.139,5.431c7.375-3.299,14.725-2.77,21.384,1.569       c0.253-0.785,0.182-0.844-0.033-1.5C0.461,5.182,0.238,4.867,0,4.608"></path>					</g>					<g transform="matrix(1,0,0,1,232.993,91.4517)">						<path style="fill:#3E3533;" d="M0,4.007C0.098,3.911,0.198,3.825,0.297,3.74c5.53-4.725,11.747-6.247,17.955-4.285       c0.538,0.167,1.104,0.389,1.557,1.161c0.858,1.472,0.949,3.114,0.845,5.485C13.467,2.409,6.099,2.541-0.784,6.514       c-0.211-0.797-0.137-0.852,0.113-1.495C-0.492,4.556-0.252,4.253,0,4.007"></path>					</g>					<g transform="matrix(0.0210531,0.999778,0.999778,-0.0210531,289.204,102.919)">						<path style="fill:#3E3533;" d="M5.105-4.998c3.407,0,6.168,2.287,6.168,5.106c0,2.821-2.762,5.106-6.168,5.106       C1.699,5.215-1.063,2.928-1.062,0.108C-1.063-2.713,1.699-4.998,5.105-4.998"></path>					</g>					<g transform="matrix(0.0210531,0.999778,0.999778,-0.0210531,243.554,102.386)">						<path style="fill:#3E3533;" d="M5.105-4.998c3.407,0,6.168,2.287,6.168,5.106c0,2.821-2.762,5.106-6.168,5.106       C1.699,5.215-1.063,2.928-1.062,0.108C-1.063-2.712,1.699-4.998,5.105-4.998"></path>					</g>					<g transform="matrix(1,0,0,1,264.604,134.012)">						<path style="fill:#F69D7D;" d="M0-26.057c-0.065-0.411-0.039-0.829,0.09-1.224c0.313-0.951,1.006-2.301,1.936,0.345       c1.074,3.05,0.59,17.728-0.9,23.155C0.785-2.542,1.369-1.237,2.541-0.709l2.056,0.927c0.646,0.291,1.179,0.821,1.384,1.499       C6.213,2.481,5.99,3.345,3.854,3.409c-3.883,0.116-8.476-3.758-7.033-7.356C-1.764-7.475,1.465-16.846,0-26.057"></path>					</g>					<g transform="matrix(1,0,0,1,276.367,88.2143)">						<path style="fill:#262423;" d="M0-37.655c0,0-28.721-4.465-35.642,8.706c-6.92,13.171-13.617,31.111-16.742,62.211       c0,0-7.854-61.988,2.1-77.167c9.954-15.18,40.148-27.012,63.336-11.162C36.239-39.218,53.227,1.808,50.284,23.734       c0,0-0.576-3.566-2.868-5.667S32.423,6.894,23.828-7.909C15.233-22.711,11.123-36.928,0-37.655"></path>					</g>					<g style="opacity:0.2;">						<g transform="matrix(1,0,0,1,232.086,172.642)">							<path d="M0,1.603c0,0-11.365,0.239-19.708-4.557C-19.708-2.954-11.045,4.557,0,1.603"></path>						</g>					</g>					<g style="opacity:0.2;">						<g transform="matrix(1,0,0,1,275.101,39.1511)">							<path d="M0,11.24c0,0,8.507-6.303,12.163-11.24C12.163,0,9.044,6.662,0,11.24"></path>						</g>					</g>					<g style="opacity:0.2;">						<g transform="matrix(1,0,0,1,314.673,61.6096)">							<path d="M0-47.885c0,0,36.366,16.126,39.657,47.885C39.657,0,37.354-25.835,0-47.885"></path>						</g>					</g>					<g style="opacity:0.2;">						<g transform="matrix(1,0,0,1,361.051,173.482)">							<path d="M0-69.234c-0.004-0.724,1.035-0.846,1.185-0.138c1.277,6.043,2.151,17.163,5.633,24.453        c5.265,11.025,15.935,26.434,24.985,31.535c9.051,5.101,17.26,14.23-0.183,3.534C15.309-19.852,0.149-44.042,0-69.234"></path>						</g>					</g>					<g style="opacity:0.2;">						<g transform="matrix(1,0,0,1,410.771,161.705)">							<path d="M0,45.04c0,0-42.948-15.208-48.214-45.04C-48.214,0-42.29,25.129,0,45.04"></path>						</g>					</g>					<g style="opacity:0.2;">						<g transform="matrix(-0.887331,-0.461133,-0.461133,0.887331,200.802,107.928)">							<path d="M-29.805-86.665c0,0,22.608,8.625,21.774,27.788c-0.834,19.165-11.945,55.946-21.774,69.68        c0,0,20.376-26.123,23.33-69.849C-4.94-81.75-29.805-86.665-29.805-86.665"></path>						</g>					</g>					<g style="opacity:0.2;">						<g transform="matrix(1,0,0,1,202.075,122.213)">							<path d="M0,34.015c0.51,0.736-10.639-5.016-3.474-34.751C-3.474-0.736-7.382,23.376,0,34.015"></path>						</g>					</g>					<g style="opacity:0.2;">						<g transform="matrix(1,0,0,1,292.928,97.9656)">							<path d="M0-42.268C0-42.268,17.476-4.909,33.377,0C33.377,0,19.267-6.205,0-42.268"></path>						</g>					</g>				</g>				<g>					<g transform="matrix(1,0,0,1,188.592,392.52)">						<path style="fill:#E19A06;" d="M0-108.181L13.81,57.513l0.877,39.323c0,0,21.583,2.468,43.863,3.646       c0.86,0.043,1.72,0.086,2.58,0.129c18.402,0.886,36.718,0.8,43.219-2.373c14.678-7.163,31.988-209.738,31.988-209.738       l10.31-77.606c0,0-5.826-11.767-13.087-20.134c-0.315-0.364-0.849-0.438-1.256-0.18c-4.507,2.849-29.413,18.558-38.618,23.633       c-10.138,5.598-8.565,7.516-9.442,13.286c-0.645,4.299-3.818,6.75-5.391,7.722c-0.542,0.335-0.895,0.49-0.895,0.49       s-0.696-0.473-1.496-1.479c-1.419-1.798-3.156-5.297-1.84-10.869c0.009-0.018,0.009-0.043,0.017-0.061       c0.06-0.283,0.129-0.567,0.189-0.851c1.703-8.53-5.82-18.43-6.12-24.497c0,0-0.635-1.059-4.466,0.191       c-0.951,0.311-1.986,0.938-3.044,1.72c0,0,0,0.009-0.008,0.018c-5.211,3.826-9.802,10.314-9.802,10.314L0-108.181z"></path>					</g>					<g style="opacity:0.15;">						<g transform="matrix(1,0,0,1,335.238,249.712)">							<path d="M0-46.299c0,0-24.414,30.554-39.322,40.676c-1.613,1.095-3.755,0.938-5.184-0.39        c-3.523-3.274-10.225-11.268-17.183-28.983c0,0,4.279,24.134,17.033,33.879c1.461,1.117,3.508,1.07,4.968-0.049        C-32.724-6.504-12.048-23.553,0-46.299"></path>						</g>					</g>					<g style="opacity:0.15;">						<g transform="matrix(1,0,0,1,245.91,204.059)">							<path d="M0,31.248c3.827,1.006,12.927-10.542,17.304-19.424c0.009-0.018,0.009-0.043,0.017-0.061        c0,0-13.047,18.169-16.994,17.731c-3.483-0.387-8.85-18.212-6.468-30.5C-8.394,9.046-6.939,29.425,0,31.248"></path>						</g>					</g>					<g style="opacity:0.15;">						<g transform="matrix(1,0,0,1,243.462,304.323)">							<path d="M0,111.237c2.838,29.065,5.529,56.676,3.68,77.442c0.86,0.043,1.72,0.086,2.58,0.129        c1.849-21.007-0.851-48.687-3.689-77.82C-0.963,74.76-4.618,37.303-0.026,8.445c6.811-42.875,19.09-73.814,24.009-85.027        c-0.542,0.335-0.895,0.49-0.895,0.49s-0.696-0.473-1.496-1.479C16.596-66.143,4.274-35.006-2.571,8.041        C-7.215,37.217-3.543,74.846,0,111.237"></path>						</g>					</g>					<g style="opacity:0.03;">						<g transform="matrix(1,0,0,1,293.178,375.242)">							<path d="M0-11.298c0,0-20.961,2.19-51.841-13.846c0,0,0.095,26.6,44.553,32.795S0-11.298,0-11.298"></path>						</g>					</g>					<g style="opacity:0.03;">						<g transform="matrix(1,0,0,1,236.381,373.17)">							<path d="M0-19.349L3.112-4.482c0,0-3.527,4.73-21.019,6.188c-17.491,1.458-14.576-19.678-14.576-19.678        s11.761,0.956,28.157-3.965C-2.409-22.513-0.41-21.308,0-19.349"></path>						</g>					</g>					<g style="opacity:0.15;">						<g transform="matrix(1,0,0,1,289.463,445.311)">							<path d="M0,28.106c0,0-22.728-7.576-33.243-28.106C-33.243,0-18.133,16.622,0,28.106"></path>						</g>					</g>					<g transform="matrix(-1,0,0,1,503.795,-255.368)">													<rect x="199.41" y="735.091" transform="matrix(-0.0784 0.9969 -0.9969 -0.0784 1014.2454 552.1776)" style="fill-rule:evenodd;clip-rule:evenodd;fill:#21282D;" width="104.974" height="19.596"></rect>					</g>					<g transform="matrix(1,0,0,1,255.349,477.326)">						<path style="fill:#F4F4F4;" d="M0,26.472h-13.884c-5.651,0-10.232-4.581-10.232-10.231v-6.01C-24.116,4.58-19.535,0-13.884,0       H0c5.651,0,10.231,4.58,10.231,10.231v6.01C10.231,21.891,5.651,26.472,0,26.472"></path>					</g>					<g transform="matrix(1,0,0,1,241.46,596.223)">						<path style="fill:#364049;" d="M0-395.436c0.216-0.774-1.199-1.293-1.933-0.966c-4.884,2.173-22.15,9.921-29.326,14.047       c-8.103,4.66-21.333,10.198-27.158,15.396c-0.4,0.357-0.611,0.88-0.611,1.416l0.046,120.408c0,0,5.746,73.53,3.196,91.891       c-2.551,18.36-29.072,133.01-26.012,139.693c3.06,6.684,48.453,14.844,51.003,9.744c2.55-5.101,9.69-150.457,4.08-198.91       c-5.61-48.452-13.647-77.09,16.445-159.684C-10.27-362.401-2.55-386.319,0-395.436"></path>					</g>					<g transform="matrix(1,0,0,1,406.102,218.044)">						<path style="fill:#364049;" d="M0,359.961c-0.221,0.402-1.367,0.915-3.256,1.497c-17.887,5.437-102.612,17.315-106.22,14.511       c-3.888-3.024-16.932-120.811-17.706-166.293v-0.322c-0.02-1.035-0.04-2.04-0.04-2.994       c-0.141-42.759-1.156-87.649,15.526-124.499c15.254-33.715,35.544-90.322,38.89-99.718c0.241-0.673,1.045-0.955,1.658-0.563       c3.336,2.161,13.064,8.301,20.34,11.456c8.602,3.738,38.819,14.32,49.672,26.198c0.734,0.804,0.985,1.92,0.704,2.955       l-31.283,116.66v0.011c-0.03,0.241-0.442,4.1-0.965,10.33c-0.603,7.215-1.346,17.616-1.799,29.303       c-0.06,1.437-0.11,2.895-0.15,4.362c-0.644,20.781-0.232,44.739,3.527,61.963c0.372,1.738,0.784,3.396,1.236,4.984       C-19.777,285.497,2.331,355.69,0,359.961"></path>					</g>					<g style="opacity:0.15;">						<g transform="matrix(1,0,0,1,278.916,601.668)">							<path d="M0-173.949c0.017,3.07,0.077,6.57,0.189,10.405C1.634-113.627,10.818-5.418,14.506-2.546        C17.783,0,87.813-9.536,114.134-15.401c0.095-1.488,0.172-2.975,0.224-4.463C86.093-13.982,20.87-5.203,17.714-7.653        c-3.629-2.821-15.186-105.097-17.387-155.9C0.163-167.319,0.052-170.81,0-173.949"></path>						</g>					</g>					<g style="opacity:0.15;">						<g transform="matrix(1,0,0,1,337.672,422.442)">							<path d="M0-221.09l3.19,15.471l0.804,3.866c0.281,1.301,0.536,2.541,0.553,3.827c0.065,2.555-0.592,5.114-1.864,7.312        c-0.634,1.099-1.419,2.109-2.324,2.994c-0.454,0.443-0.94,0.844-1.443,1.232l-1.584,1.179l-3.168,2.357l-0.396,0.294        c-0.13,0.097-0.258,0.187-0.433,0.344c-0.319,0.288-0.579,0.66-0.73,1.074c-0.294,0.833-0.16,1.78,0.349,2.503        c0.25,0.365,0.609,0.658,1.005,0.852c0.188,0.108,0.424,0.164,0.601,0.221l0.479,0.122l1.913,0.487l3.826,0.976l3.835,0.938        c0.638,0.163,1.28,0.31,1.914,0.487l0.953,0.257c0.152,0.043,0.334,0.085,0.461,0.129c0.102,0.041,0.203,0.078,0.288,0.143        c0.348,0.254,0.504,0.655,0.556,1.004c0.07,0.347,0.068,0.701-0.121,1.008l-2.065,3.306c-1.394,2.24-2.765,4.494-4.125,6.753        c-2.726,4.517-5.358,9.089-7.968,13.672c-5.166,9.198-10.139,18.511-14.687,28.039c-4.56,9.519-8.798,19.204-12.448,29.126        c-3.681,9.931-6.46,20.104-9.416,30.209c-2.926,10.118-5.757,20.261-8.549,30.414C-53.416-20.349-56.124-10.172-58.848,0        l18.294-60.466c3.105-10.057,6.094-20.16,9.78-29.962c3.701-9.813,7.991-19.408,12.605-28.84        c4.637-9.422,9.523-18.726,14.681-27.882c2.598-4.566,5.219-9.121,7.931-13.62c1.354-2.251,2.719-4.496,4.105-6.726        l2.114-3.394c0.482-0.831,0.601-1.9,0.281-2.806c-0.324-0.917-1.107-1.587-1.937-1.914c-0.21-0.082-0.419-0.154-0.635-0.2        l-0.497-0.109l-0.965-0.209c-0.645-0.133-1.283-0.296-1.924-0.444l-3.839-0.924l-3.848-0.886l-1.924-0.444l-0.48-0.111        c-0.135-0.043-0.227-0.053-0.326-0.11c-0.195-0.09-0.37-0.219-0.496-0.396c-0.26-0.348-0.343-0.84-0.208-1.257        c0.071-0.207,0.194-0.392,0.357-0.548c0.066-0.068,0.201-0.175,0.334-0.276l0.39-0.304l3.113-2.429l1.556-1.214        c0.53-0.429,1.049-0.878,1.527-1.366c0.955-0.978,1.774-2.085,2.427-3.28c1.311-2.389,1.943-5.134,1.813-7.839        c-0.05-1.351-0.351-2.7-0.675-3.958L3.77-205.75L0-221.09z"></path>						</g>					</g>					<g transform="matrix(1,0,0,1,210.783,260.758)">						<path style="fill-opacity:0.15;" d="M0,14.389C0.156,7.543-0.175,0.698-0.967-6.104c-0.12-1.03-0.243-2.059-0.371-3.088       c-0.297-2.395-0.604-4.789-0.935-7.181l-0.495-3.532c-0.045-0.327,0.085-0.624,0.273-0.887       c0.173-0.273,0.453-0.55,0.839-0.632c0.095-0.024,0.193-0.017,0.294-0.014c0.122,0.012,0.29,0.044,0.433,0.064l0.893,0.141       c0.596,0.087,1.187,0.203,1.78,0.305l3.555,0.643l3.562,0.609l1.78,0.304l0.446,0.076c0.169,0.019,0.387,0.06,0.585,0.04       c0.403-0.015,0.812-0.126,1.157-0.338c0.695-0.415,1.159-1.157,1.223-1.963c0.029-0.402-0.051-0.81-0.21-1.169       c-0.088-0.197-0.162-0.32-0.234-0.449l-0.222-0.394l-1.771-3.149l-0.885-1.575c-0.276-0.512-0.533-1.027-0.748-1.567       c-0.427-1.076-0.707-2.213-0.828-3.368c-0.245-2.311,0.159-4.694,1.163-6.806c0.493-1.068,1.168-2.01,1.887-2.993l2.112-2.932       l8.424-11.745l-8.861,11.419l-2.21,2.859c-0.739,0.931-1.493,1.946-2.037,3.057c-1.116,2.213-1.609,4.742-1.403,7.227       c0.101,1.243,0.374,2.473,0.809,3.645c0.217,0.587,0.483,1.155,0.767,1.71l0.849,1.595l1.699,3.189l0.212,0.399       c0.073,0.134,0.147,0.274,0.176,0.355c0.079,0.191,0.113,0.392,0.095,0.591c-0.042,0.399-0.295,0.779-0.642,0.973       c-0.171,0.102-0.366,0.144-0.562,0.147c-0.103,0.011-0.185-0.016-0.313-0.029l-0.443-0.086l-1.773-0.346L5.556-21.69       l-3.553-0.656c-0.591-0.116-1.184-0.216-1.773-0.345l-0.884-0.185l-0.456-0.093c-0.198-0.042-0.4-0.06-0.606-0.07       c-0.815-0.035-1.72,0.233-2.331,0.879c-0.606,0.638-0.904,1.576-0.81,2.45l0.504,3.624c0.328,2.38,0.634,4.765,0.928,7.15       c0.287,2.31,0.551,4.622,0.8,6.936c0.509,4.712,0.78,9.446,0.827,14.185l0.593,59.908C-1.205,72.093-0.423,32.974,0,14.389"></path>					</g>				</g>				<g>					<g>						<g transform="matrix(1,0,0,1,26.1665,127.971)">							<path style="fill:#FBC0A4;" d="M0,27.327c0.063,0.207,0.119,0.407,0.178,0.601c0.705,2.38,1.1,3.846,1.1,3.846l-13.162,8.502        c0,0-0.16-0.531-0.429-1.426c-0.062-0.217-0.131-0.455-0.211-0.714c-1.124-3.832-3.418-11.914-4.203-16.684        c-1.061-6.421-3.626-15.895-6.012-22.361c-2.384-6.471-3.166-8.337,0.589-10.19c3.76-1.85,7.621,2.077,13.297,14.191        C-5.005,11.31-1.716,21.572,0,27.327"></path>						</g>						<g transform="matrix(1,0,0,1,21.8164,147.152)">							<path style="fill:#F69D7D;" d="M0-3.512c0,0-3.358,2.744-7.757,3.077C-7.757-0.435-2.944,0,0-3.512"></path>						</g>						<g transform="matrix(1,0,0,1,17.3385,135.213)">							<path style="fill:#F69D7D;" d="M0-2.957c0,0-2.828,2.311-6.533,2.591C-6.533-0.366-2.48,0,0-2.957"></path>						</g>						<g transform="matrix(1,0,0,1,42.5243,256.479)">							<path style="fill:#FBC0A4;" d="M0-77.902c0,0,0.769-1.187,0.42-3.294c-0.039-0.263-0.096-0.539-0.183-0.833        c0,0,0.011,0.006,0.03,0.033c0.146,0.156,0.792,0.809,1.546,1.254c0,0,0.039,1.511,0.911,2.417        C2.058-78.719,0-77.902,0-77.902 M15.128-91.597c-2.715-8.817-9.051-7.627-12.163-5.942        c-0.551,0.304-1.234,0.509-1.979,0.668c-1.378,0.314-2.993,0.44-4.402,0.632c-2.081,0.269-3.736,0.665-3.633,1.936        c0,0-0.131-0.17-0.37-0.448c-0.713-0.844-2.411-2.708-4.498-4.107c-2.69-1.805-6.039-2.839-8.767,0.088        c-2.788,2.993-6.755,7.588-10.279,11.867c-3.497,4.246-6.553,8.172-7.565,9.891c-2.043,3.441-2.392,7.183-3.463,11.545        c-1.067,4.361-0.733,5.96,2.854,13.656c3.586,7.691,5.898,17.393,11.274,23.234c5.377,5.846,4.024,9.28,11.74,52.372        l38.572-14.6c0,0-6.708-24.354-7.412-36.56c-0.703-12.221,1.465-13.226,3.875-19.38C21.31-52.896,19.787-63.129,21-68.753        C22.204-74.374,17.834-82.767,15.128-91.597"></path>						</g>						<g transform="matrix(1,0,0,1,45.3866,186.502)">							<path style="fill:#F69D7D;" d="M0-8.216c0.462,0.679-1.901,0.265-2.203,1.077c-0.278,0.742-0.857,3.084-2.98,4.514        C-5.591-2.35-5.874-1.916-5.995-1.437c-0.378,1.47-1.422,4.612-3.669,6.68c-0.213,0.204-0.389,0.43-0.51,0.706        c-0.59,1.429-3.027,6.442-9.021,9.792c-0.568,0.317-1.214,0.451-1.852,0.37c-1.179-0.154-3.069-0.797-4.697-3.156        c-0.238-0.344-0.721-0.4-1.034-0.128c-0.775,0.667-2.561,1.797-6.575,3.074c0,0,5.655-3.093,5.895-5.018        c0,0-4.412-0.185-7.189,0.029c-0.085,0-0.113-0.11-0.036-0.14c1.41-0.48,5.052-1.757,5.62-2.361        c0.713-0.747-2.712-0.654-4.76-1.373c-2.047-0.719,5.721-0.396,6.36-1.635c0.65-1.242,0.22-3.782,1.13-1.983        c0.919,1.796,1.405,3.023,2.555,3.356c1.157,0.32-1.656,1.671-1.376,3.632c0.281,1.961,3.382,5.453,5.607,4.21        c2.212-1.25,8.491-7.835,8.305-9.884c0,0-0.156-4.537-5.035-8.36c-4.881-3.833-9.762-11.391-21.055,2.689        c0.158-0.296,2.84-5.02,7.695-8.078c5.002-3.149,8.174-0.292,11.788,2.791c3.614,3.084,6.046,4.513,7.041,10.495        c1.154-1.308,4.28-5.007,4.081-7.021c0,0,0.734-4.596-2.309-7.656s-9.71-14.002-14.638-10.19        c-4.91,3.796-9.737,9.156-11.158,11.331c0.11-0.316,2.099-5.457,10.617-11.533c0,0,2.436-2.489,5.492-0.454        c3.067,2.032,7.682,7.232,10.171,10.328c2.496,3.084,2.375,5.925,2.46,7.702c1.074-0.83,3.132-2.679,3.229-4.705        c0,0,2.057-0.816,2.722-0.423C-0.098-8.308-0.053-8.256,0-8.216"></path>						</g>						<g transform="matrix(0.856749,-0.515733,-0.515733,-0.856749,45.2152,171.402)">							<path style="fill:#F69D7D;" d="M-3.674-1.344c-0.079-0.3-0.169-0.563-0.275-0.811c0,0-4.421,9.873,0.275,15.658        c0.064-0.363,0.087-0.575,0.087-0.575S-6.827,8.129-3.674-1.344"></path>						</g>						<g transform="matrix(1,0,0,1,44.3369,172.115)">							<path style="fill:#F69D7D;" d="M0,3.621c0,0,6.432,0.438,9.124-4.859C9.124-1.238,6.712,4.859,0,3.621"></path>						</g>						<g transform="matrix(1,0,0,1,45.3564,182.156)">							<path style="fill:#F69D7D;" d="M0-3.573c0,0,2.196,3.573,8.705,1.248C8.705-2.325,3.788-0.226,0-3.573"></path>						</g>						<g style="opacity:0.6;">							<g transform="matrix(1,0,0,1,44.5074,160.27)">								<path style="fill:#FFFFFF;" d="M0,4c-3.155-0.636-5.244-3.793-5.4-4.029c1.409-0.192,3.025-0.321,4.404-0.632l0.002,0.01         c1.095,3.305,4.235,3.264,4.748,3.686C4.267,3.456,3.267,4.661,0,4"></path>							</g>						</g>						<g transform="matrix(1,0,0,1,19.8348,184.764)">							<path style="fill:#F69D7D;" d="M0-5.792c0,0,1.414,3.356-0.752,5.792C-0.752,0,1.847-1.967,0-5.792"></path>						</g>						<g transform="matrix(1,0,0,1,23.2684,172.291)">							<path style="fill:#F69D7D;" d="M0-5.792c0,0,1.414,3.356-0.752,5.792C-0.752,0,1.847-1.968,0-5.792"></path>						</g>						<g transform="matrix(1,0,0,1,25.6599,162.618)">							<path style="fill:#F69D7D;" d="M0-5.792c0,0,1.414,3.356-0.752,5.792C-0.752,0,1.847-1.967,0-5.792"></path>						</g>						<g transform="matrix(1,0,0,1,57.6344,228.822)">							<path style="fill:#F69D7D;" d="M0-8.134C0-8.134-6.173-1.86-15.703,0C-15.703,0-5.156-0.87,0-8.134"></path>						</g>						<g transform="matrix(1,0,0,1,26.1665,166.44)">							<path style="fill:#F69D7D;" d="M0-11.142c0.063,0.207,0.119,0.407,0.178,0.601c-1.548-0.147-3.107,0.312-4.505,1.81        c-2.194,2.357-5.12,5.709-7.986,9.112c-0.062-0.217-0.131-0.455-0.211-0.714c0,0,6.15-7.143,7.465-8.547        C-3.739-10.282-2.038-11.523,0-11.142"></path>						</g>					</g>					<g transform="matrix(1,0,0,1,190.193,423.708)">						<path style="fill:#364049;" d="M0-195.734c-3.513-3.347-8.763,4.645-12.018,8.244c-17.629,19.491-71.194,80.036-86.572,95.556       c-1.466,1.48-3.988,0.687-4.363-1.362l-23.003-101.333c-0.194-0.856-1.06-1.38-1.908-1.153l-49.61,13.245       c-0.755,0.202-1.242,0.931-1.134,1.705c2.204,15.793,23.515,164.763,44.137,172.477C-103.189,3.347-76.411-7.067-7.72-77.119       c23.89-24.364,18.565-46.507,17.976-65.921C9.502-167.896,8.435-187.697,0-195.734"></path>					</g>					<g style="opacity:0.15;">						<g transform="matrix(1,0,0,1,182.477,247.494)">							<path d="M0,99.08c0,0-4.542-52.401,0.639-99.08L0,99.08z"></path>						</g>					</g>				</g>				<g>					<g transform="matrix(1,0,0,1,247.077,305.282)">						<path style="fill:#D8D8D8;stroke:#444444;stroke-width:0.4924;stroke-miterlimit:15.3883;" d="M0,156.997h-111.919       c-3.885,0-7.154-2.913-7.6-6.773L-135.88,8.528C-136.405,3.985-132.853,0-128.28,0h111.919c3.885,0,7.154,2.912,7.6,6.773       L7.6,148.469C8.125,153.012,4.573,156.997,0,156.997z"></path>					</g>					<g transform="matrix(1,0,0,1,244.057,305.441)">						<path style="fill:#E5E5E5;" d="M0,156.676c-0.513,0.1-1.035,0.161-1.578,0.161h-111.917c-3.889,0-7.155-2.914-7.607-6.773       l-16.34-141.523l-0.02-0.17c-0.523-4.543,3.024-8.532,7.607-8.532h111.917c3.879,0,7.155,2.914,7.597,6.773l16.36,141.693       C6.482,152.315,3.778,155.882,0,156.676"></path>					</g>					<g transform="matrix(1,0,0,1,244.057,305.441)">						<path style="fill:none;stroke:#444444;stroke-width:0.4924;stroke-miterlimit:15.3883;" d="M0,156.676       c-0.513,0.1-1.035,0.161-1.578,0.161h-111.917c-3.889,0-7.155-2.914-7.607-6.773l-16.34-141.523l-0.02-0.17       c-0.523-4.543,3.024-8.532,7.607-8.532h111.917c3.879,0,7.155,2.914,7.597,6.773l16.36,141.693       C6.482,152.315,3.778,155.882,0,156.676z"></path>					</g>					<g style="opacity:0.8;">						<g transform="matrix(0,-1,-1,0,176.502,367.463)">							<path style="fill:#FFFFFF;" d="M-16.318-16.318c-9.012,0-16.317,7.306-16.317,16.318c0,9.011,7.305,16.318,16.317,16.318        S0,9.011,0,0C0-9.012-7.306-16.318-16.318-16.318"></path>						</g>					</g>					<g style="opacity:0.08;">						<g transform="matrix(1,0,0,1,244.057,313.983)">							<path d="M0,148.134c-0.513,0.1-1.035,0.161-1.578,0.161h-111.917c-3.889,0-7.155-2.914-7.607-6.773l-16.34-141.523        c0.512-0.1,1.035-0.16,1.577-0.16h111.918c3.889,0,7.155,2.914,7.607,6.773L0,148.134z"></path>						</g>					</g>					<g style="opacity:0.1;">						<g transform="matrix(1,0,0,1,375,392.899)">							<path d="M0,69.963c0.372,1.738,0.784,3.396,1.236,4.984l-77.951-10.401c-0.995-0.13-1.699-1.025-1.608-2.02l6.391-65.721        c0.101-1.035,1.045-1.789,2.09-1.658l66.466,8.492C-3.437,5.075-3.487,6.533-3.527,8l-62.154-7.939        c-1.025-0.131-1.97,0.613-2.081,1.638l-6.341,56.546c-0.11,0.995,0.603,1.91,1.598,2.041L0,69.963z"></path>						</g>					</g>					<g transform="matrix(1,0,0,1,353.204,368.54)">						<path style="fill:#FBC0A4;" d="M0,81.237c0,0-9.084-2.221-29.283-8.502c-20.209-6.27-26.51-7.476-31.725-4.622       c-5.216,2.854-12.552,1.015-21.857-1.658c-9.306-2.663-16.461-9.607-20.149-11.587c-3.688-1.97-9.326,1.839-12.139,11.426       c-0.613,2.1-1.277,4.06-1.98,5.808c-0.151,0.372-0.301,0.734-0.452,1.086c-0.091,0.201-0.171,0.401-0.261,0.592       c-0.151,0.322-0.302,0.644-0.443,0.945c-0.743,1.508-1.517,2.764-2.301,3.718c-0.09,0.121-0.191,0.231-0.281,0.332       c-0.101,0.11-0.191,0.211-0.292,0.311c-0.09,0.091-0.191,0.181-0.281,0.262c-0.09,0.08-0.191,0.16-0.291,0.241       c-0.091,0.08-0.191,0.151-0.282,0.211c-0.14,0.09-0.271,0.181-0.412,0.241c-0.02,0.02-0.04,0.03-0.06,0.03       c-0.131,0.081-0.271,0.131-0.402,0.181c-0.202,0.071-0.405,0.118-0.608,0.141c-0.203,0.022-0.407,0.02-0.608-0.01       c-0.111-0.01-0.211-0.03-0.312-0.06c-0.01-0.011-0.01-0.011-0.02-0.011c-0.321-0.08-0.633-0.231-0.944-0.452       c-3.638-2.522-0.553-10.089-0.453-13.828c0.071-2.673,1.88-9.787,2.905-13.656c0.422-1.558,0.713-2.593,0.713-2.593       c-3.407,2.12-6.773,0.633-8.622,0.04c-0.583-0.181-1.196,0.171-1.327,0.774c-2.009,9.888-5.627,19.877-10.943,21.214       c-0.432,0.11-0.844,0.181-1.216,0.221c-4.472,0.402-5.266-4.361-3.135-12.511c2.311-8.854,1.688-11.778,3.396-18.802       c0.01-0.02,0.01-0.051,0.02-0.071c0.402-1.597,1.227-2.994,2.251-4.21c2.432-2.904,6.03-4.743,7.929-5.568       c0.794-0.351,1.297-0.522,1.297-0.522c-0.955-1.889-5.558-1.216-7.537-0.824c-0.412,0.08-0.764,0.321-0.995,0.643       c0,0.01-0.01,0.01-0.01,0.02c-0.04,0.061-0.071,0.121-0.101,0.181c-0.04,0.07-0.07,0.141-0.1,0.211       c-5.226,14.561-15.215,23.003-19.887,20.34c-0.453-0.252-0.865-0.613-1.206-1.086c-1.91-2.612,2.301-10.602,4.803-14.882       c0.915-1.568,1.608-2.623,1.688-2.754c-5.125,1.789-8.692,3.387-11.707-0.131c-0.392-0.462-0.774-1.015-1.156-1.658       c-3.266-5.577,13.476-15.385,23.073-19.194c9.607-3.798,28.741-4.24,36.097-7.687C-102.24,0.08-99.366,0-91.759,6.511       c7.607,6.502,22.239,13.406,37.554,20.028C-38.88,33.162-6.512,32.77-6.512,32.77l0.231,1.748L0,81.237z"></path>					</g>					<g style="opacity:0.15;">						<g transform="matrix(1,0,0,1,354.409,403.059)">							<path d="M0,48.457c0,0-9.074-2.221-29.283-8.492c-20.209-6.28-26.5-7.486-31.715-4.622        c-5.216,2.854-12.692,1.668-21.988-0.995c-9.305-2.663-16.621-8.25-20.309-10.23c-3.698-1.98-9.034-0.181-11.848,9.396        c-2.824,9.587-6.844,14.812-10.481,12.29c-0.01,0-0.01-0.01-0.021-0.01c3.347,0.935,6.713-5.266,9.286-14.019        c2.814-9.586,8.451-13.395,12.139-11.425c3.688,1.979,10.843,8.923,20.149,11.586c9.305,2.673,16.641,4.512,21.857,1.658        c5.215-2.854,11.516-1.648,31.725,4.623c20.199,6.281,29.283,8.502,29.283,8.502L-7.487,0h0.985L0,48.457z"></path>						</g>					</g>					<g style="opacity:0.15;">						<g transform="matrix(1,0,0,1,230.986,440.593)">							<path d="M0-22.269c0,0-0.291,1.035-0.714,2.593c-2.703,0.743-5.205-0.332-6.692-0.804c-0.583-0.191-1.206,0.171-1.327,0.774        c-2.01,9.888-4.833,18.098-10.149,19.445c-1.267,0.321-2.342,0.402-3.226,0.241c0.372-0.04,0.784-0.111,1.216-0.221        c5.316-1.337,8.933-11.326,10.943-21.214c0.131-0.603,0.744-0.955,1.327-0.774C-6.773-21.636-3.407-20.149,0-22.269"></path>						</g>					</g>					<g style="opacity:0.15;">						<g transform="matrix(1,0,0,1,220.635,421.027)">							<path d="M0-22.139c0,0-0.502,0.171-1.296,0.523c-1.719-0.171-3.849,0.17-5.035,0.402c-0.402,0.08-0.754,0.311-0.985,0.643        c-0.01,0.01-0.01,0.01-0.01,0.02c-0.04,0.05-0.08,0.11-0.11,0.181c-0.031,0.06-0.071,0.13-0.091,0.201        c-0.522,1.447-1.085,2.813-1.698,4.12c-1.025,1.216-1.849,2.613-2.251,4.21C-17.335-2.191-25.223,1.889-28.63-1.568        c4.673,2.663,14.662-5.779,19.887-20.34c0.03-0.07,0.061-0.14,0.101-0.211c0.03-0.06,0.06-0.12,0.1-0.181        c0-0.01,0.01-0.01,0.01-0.02c0.231-0.321,0.583-0.563,0.995-0.643C-5.557-23.355-0.955-24.028,0-22.139"></path>						</g>					</g>					<g transform="matrix(1,0,0,1,211.41,409.189)">						<path style="fill:none;stroke:#FBC0A4;stroke-width:1.0002;stroke-miterlimit:15.3883;" d="M0-4.211       C-0.704-2.714-1.457-1.307-2.251,0C-1.849-1.598-1.025-2.995,0-4.211z"></path>					</g>					<g style="opacity:0.15;">						<g transform="matrix(0.00343139,-0.999994,-0.999994,-0.00343139,189.252,397.082)">							<path d="M-3.628-8.051c-0.131,0.079-1.189,0.77-2.759,1.678c-1.421,4.226-1.814,7.27,2.759,9.979        c0.03,0.02,0.061,0.03,0.091,0.05C-7.045,0.63-5.435-2.933-3.628-8.051"></path>						</g>					</g>					<g transform="matrix(1,0,0,1,230.294,400.273)">						<path style="fill:#F69D7D;" d="M0-19.164c-3.522,0.215-7.044,0.51-10.545,0.921c-1.75,0.216-3.494,0.464-5.225,0.77       c-1.727,0.312-3.45,0.684-5.083,1.262c-0.806,0.293-1.618,0.64-2.233,1.154l-0.22,0.196c-0.073,0.073-0.144,0.159-0.216,0.238       l-0.431,0.483c-0.269,0.341-0.547,0.675-0.806,1.028c-1.035,1.409-1.983,2.896-2.893,4.405       c-1.851,3.004-3.47,6.155-5.344,9.161c0.835-1.559,1.582-3.162,2.385-4.74c0.803-1.577,1.618-3.15,2.483-4.699       c0.875-1.542,1.783-3.071,2.827-4.525c0.258-0.364,0.54-0.716,0.813-1.072l0.444-0.514c0.076-0.086,0.144-0.172,0.226-0.256       l0.273-0.247c0.749-0.622,1.602-0.972,2.447-1.287c1.702-0.607,3.448-0.987,5.198-1.309c1.749-0.326,3.512-0.549,5.275-0.743       c3.528-0.38,7.064-0.606,10.61-0.678c0.125-0.002,0.228,0.097,0.23,0.222c0.003,0.121-0.091,0.222-0.211,0.23H0z"></path>					</g>					<g transform="matrix(-0.154158,-0.988046,-0.988046,0.154158,220.62,387.963)">						<path style="fill:#F69D7D;" d="M-8.824-9.963c-0.463,2.529-1.972,11.631-1.972,11.631c2.016,0.653,2.053,5.309,1.972,7.324       c-0.017,0.414-0.195,0.799-0.483,1.079C-4.939,6.288-8.376-12.429-8.824-9.963"></path>					</g>					<g transform="matrix(1,0,0,1,237.725,418.326)">						<path style="fill:#F69D7D;" d="M0-10.18c0,0-5.86,6.918-6.743,10.18C-6.743,0-6.101-4.514,0-10.18"></path>					</g>					<g transform="matrix(1,0,0,1,216.256,418.366)">						<path style="fill:#F69D7D;" d="M0-5.424c0,0,2.444,5.052,6.111,5.424C6.111,0,3.223-0.485,0-5.424"></path>					</g>					<g transform="matrix(1,0,0,1,213.134,392.811)">						<path style="fill:#F69D7D;" d="M0,4.822c0,0-2.503-2.205-2.873-4.822C-2.873,0-3.056,2.898,0,4.822"></path>					</g>					<g transform="matrix(1,0,0,1,231.699,425.082)">						<path style="fill:#F69D7D;" d="M0-3.235c0,0,1.569,3.235,5.745,2.732C5.745-0.503,2.371-0.48,0-3.235"></path>					</g>					<g transform="matrix(1,0,0,1,246.98,379.776)">						<path style="fill:#F69D7D;" d="M0-2.262c0,0,4.331-0.878,8.262,3.14C8.262,0.878,5.317-2.127,0-2.262"></path>					</g>					<g transform="matrix(1,0,0,1,244.186,390.44)">						<path style="fill:#F69D7D;" d="M0-2.262c0,0,4.331-0.878,8.262,3.14C8.262,0.878,5.317-2.127,0-2.262"></path>					</g>					<g transform="matrix(1,0,0,1,245.697,403.112)">						<path style="fill:#F69D7D;" d="M0-2.262c0,0,4.331-0.878,8.262,3.14C8.262,0.878,5.317-2.127,0-2.262"></path>					</g>					<g style="opacity:0.6;">						<g transform="matrix(1,0,0,1,188.355,400.338)">							<path style="fill:#FFFFFF;" d="M0-8.7c-0.245-0.217-4.627,3.897-3.779,6.334c0.848,2.438,1.788,2.583,4.087,0.673        S3.889-5.263,0-8.7"></path>						</g>					</g>					<g style="opacity:0.6;">						<g transform="matrix(1,0,0,1,193.641,419.387)">							<path style="fill:#FFFFFF;" d="M0-7.667c-0.555-0.411-1.347-0.21-1.635,0.418C-2.37-5.647-3.404-2.836-2.353-1.507        c1.519,1.918,3.224,1.015,3.868-0.475C2.159-3.471,3.041-5.25,2.488-5.756C2.151-6.064,0.915-6.99,0-7.667"></path>						</g>					</g>					<g style="opacity:0.6;">						<g transform="matrix(1,0,0,1,207.619,440.116)">							<path style="fill:#FFFFFF;" d="M0-7.786c-0.606-0.33-1.363-0.022-1.562,0.639c-0.507,1.688-1.144,4.615,0.08,5.786        C0.286,0.33,1.85-0.799,2.283-2.363S3.345-5.81,2.727-6.235C2.351-6.494,0.999-7.242,0-7.786"></path>						</g>					</g>					<g style="opacity:0.6;">						<g transform="matrix(1,0,0,1,228.453,448.056)">							<path style="fill:#FFFFFF;" d="M0-6.419c-0.5-0.272-1.123-0.018-1.287,0.527C-1.706-4.5-2.231-2.088-1.222-1.122        c1.458,1.394,2.747,0.463,3.104-0.826c0.357-1.29,0.875-2.842,0.366-3.193C1.938-5.354,0.824-5.97,0-6.419"></path>						</g>					</g>					<g transform="matrix(1,0,0,1,293.14,427.68)">						<path style="fill:#F69D7D;" d="M0,8.508c0,0,6.952-4.512,6.327-8.508C6.327,0,4.608,4.88,0,8.508"></path>					</g>					<g transform="matrix(1,0,0,1,432.803,242.373)">						<path style="fill:#364049;" d="M0,213.002c-8.321,7.346-20.018,11.587-35.916,10.411l-94.391-12.602       c-0.995-0.13-1.709-1.045-1.598-2.04l6.341-56.546c0.11-1.025,1.055-1.769,2.08-1.638l74.776,9.556       c4.16,0.412,7.245-3.788,5.587-7.627l-15.295-37.986c0,0-2.944-95.648,12.25-119.092c3.548-5.497,8.1-7.025,13.918-2.442       C-12.843,8.301,5.326,91.668,16.039,150.747C19.777,171.358,16.641,198.36,0,213.002"></path>					</g>					<g transform="matrix(1,0,0,1,374.39,262.72)">						<path style="fill-opacity:0.15;" d="M0,94.179c0,0,5.932-58.955,22.4-94.179C22.4,0,9.393,40.374,0,94.179"></path>					</g>				</g>				<g>					<g transform="matrix(1,0,0,1,255.642,189.285)">						<path style="fill:#262423;" d="M0,66.006l-0.008,0.008c-0.638,0.477-38.164,15.879-51.601,0.376       c-15.74-18.163-15.879-33.555-11.369-44.314C-45.6,12.048-9.347-15.887-11.441,3.601c-2.452,22.82,10.048,22.416-7.13,40.302       C-35.748,61.789,0,66.006,0,66.006"></path>					</g>					<g style="opacity:0.2;">						<g transform="matrix(1,0,0,1,198.232,201.352)">							<path d="M0,33.254c0,0-7.766-15.635,6.54-33.254C6.54,0-3.88,14.189,0,33.254"></path>						</g>					</g>					<g style="opacity:0.2;">						<g transform="matrix(1,0,0,1,237.727,220.723)">							<path d="M0,35.397c0,0-26.383-5.742-16.626-35.397C-16.626,0-26.532,24.757,0,35.397"></path>						</g>					</g>					<g style="opacity:0.2;">						<g transform="matrix(1,0,0,1,220.82,180.564)">							<path d="M0,37.167c0,0,10.508-17.773,10.536-37.167C10.536,0,9.234,17.364,0,37.167"></path>						</g>					</g>				</g>			</g>		</g>	</g>			<g transform="matrix(1.46713,0,0,1.46713,637.999,1679.09)" style="clip-path:url(#SVGID_00000102545468154755870930000013897031773777839536_);">		<g transform="matrix(1,0,0,1,14.2274,-10.0818)">			<path style="fill:#E19A06;" d="M0,77.235c0,0-4.413-5.623-4.672-19.38c-0.26-13.757,13.757-8.047,18.169,6.748    c0,0-2.076-26.735,5.192-43.088C25.957,5.163,39.973-0.461,42.05,52.144c0,0,2.076-12.718,10.382-15.055    c8.306-2.336,15.055-0.549,0,40.607L0,77.235z"></path>		</g>		<g style="opacity:0.1;">			<g transform="matrix(1,0,0,1,19.8165,5.5571)">				<path style="fill:#FFFFFF;" d="M0,58.773c0,0-4.938-16.069,0.648-6.294S14.41,64.76,16.029,46.871     c1.619-17.889,3.886-55.695,8.338-24.69c4.453,31.006,7.934,38.373,7.934,38.373s16.758-38.13,12.062-21.372     c-4.695,16.758-9.067,22.875-9.067,22.875S4.21,67.597,0,58.773"></path>			</g>		</g>		<g transform="matrix(1,0,0,1,6.5928,121.557)">			<path style="fill:#434D56;" d="M0-42.319L7.652,5.746h55.027l8.23-51.705l0.336-2.106H-0.914L0-42.319z"></path>		</g>		<g transform="matrix(1,0,0,1,77.5971,73.4924)">			<path style="fill:#434D56;" d="M0-12.678h-71.679c-3.268,0-5.918,2.65-5.918,5.918v0.841c0,3.269,2.65,5.919,5.918,5.919H0    c3.269,0,5.918-2.65,5.918-5.919V-6.76C5.918-10.028,3.269-12.678,0-12.678"></path>		</g>		<g style="opacity:0.15;">			<g transform="matrix(-0.157552,0.987511,0.987511,0.157552,38.9108,112.448)">				<path d="M-44.602,32.304h2.133l14.766-69.45l-5.53-1.809L-44.602,32.304z"></path>			</g>		</g>	</g>			<g transform="matrix(1,0,0,0.617947,-9.85011,743.182)" style="clip-path:url(#SVGID_00000102545468154755870930000013897031773777839536_);">					<rect x="-108.103" y="1809.379" transform="matrix(0.795 0.6067 -0.6067 0.795 1310.2163 -239.7944)" style="fill-rule:evenodd;clip-rule:evenodd;fill:#1D2227;" width="2235.911" height="18.04"></rect>	</g></g></svg>